<svg width="94" height="17" viewBox="0 0 94 17" fill="none" xmlns="http://www.w3.org/2000/svg">
<path fill-rule="evenodd" clip-rule="evenodd" d="M0.31225 13.4595H2.38796C2.55183 13.4595 2.67928 13.3867 2.73391 13.2046L5.13736 5.61186C5.17378 5.4662 5.31944 5.4662 5.37406 5.61186L8.23271 13.15C8.30554 13.3502 8.4148 13.4595 8.61508 13.4595H9.90785C10.0899 13.4595 10.2356 13.3685 10.3084 13.15L13.076 5.61186C13.1307 5.4662 13.2945 5.4662 13.3309 5.61186L15.6798 13.2046C15.7162 13.3502 15.8254 13.4595 16.0075 13.4595H18.2107C18.4292 13.4595 18.5566 13.2956 18.4838 13.0589L14.8604 1.36941C14.8058 1.20554 14.6783 1.07808 14.5145 1.07808H12.6572C12.4934 1.07808 12.3477 1.22374 12.2931 1.36941L9.43444 8.74363C9.37981 8.90751 9.23415 8.8893 9.17953 8.74363L6.30267 1.36941C6.24805 1.22374 6.10238 1.07808 5.93851 1.07808H4.0813C3.91743 1.07808 3.78997 1.20554 3.73535 1.36941L0.0391287 13.0589C-0.0337032 13.3138 0.0937545 13.4595 0.31225 13.4595ZM23.9644 13.6962C21.1604 13.6962 19.0847 11.5841 19.0847 8.8893C19.0847 6.17631 21.1604 4.08239 23.9644 4.08239C26.7866 4.08239 28.8441 6.17631 28.8441 8.8893C28.8441 11.5841 26.7866 13.6962 23.9644 13.6962ZM23.9644 11.4384C25.2936 11.4384 26.3678 10.2913 26.3678 8.8893C26.3678 7.46907 25.2936 6.34018 23.9644 6.34018C22.6534 6.34018 21.5609 7.46907 21.5609 8.8893C21.5609 10.2913 22.6534 11.4384 23.9644 11.4384ZM35.6903 13.6962C34.6161 13.6962 33.8877 13.2592 33.214 12.713C33.032 12.5673 32.8681 12.6219 32.8681 12.8768V13.1135C32.8681 13.2956 32.7224 13.4595 32.5403 13.4595H30.8288C30.6467 13.4595 30.4828 13.2956 30.4828 13.1135V1.42403C30.4828 1.24195 30.6467 1.07808 30.8288 1.07808H32.6314C32.8135 1.07808 32.9591 1.24195 32.9591 1.42403V4.75609C32.9591 4.99279 33.123 5.06562 33.3779 4.88354C33.9241 4.48297 34.7253 4.08239 35.7632 4.08239C38.2576 4.08239 40.1695 6.19452 40.1695 8.8893C40.1695 11.5841 38.2212 13.6962 35.6903 13.6962ZM35.2715 11.4202C36.6189 11.4202 37.6932 10.2913 37.6932 8.8893C37.6932 7.46907 36.6189 6.34018 35.2715 6.34018C33.9606 6.34018 32.8863 7.45087 32.8863 8.8893C32.8863 10.3095 33.9424 11.4202 35.2715 11.4202ZM43.0645 3.31766C43.8111 3.31766 44.4483 2.68038 44.4483 1.93385C44.4483 1.18733 43.8111 0.550049 43.0645 0.550049C42.318 0.550049 41.6807 1.18733 41.6807 1.93385C41.6807 2.68038 42.318 3.31766 43.0645 3.31766ZM42.1359 13.4595H43.9385C44.1206 13.4595 44.2845 13.2956 44.2845 13.1135V4.66505C44.2845 4.48297 44.1206 4.3191 43.9385 4.3191H42.1359C41.9539 4.3191 41.8082 4.48297 41.8082 4.66505V13.1135C41.8082 13.2956 41.9539 13.4595 42.1359 13.4595ZM49.6558 13.5505C49.8379 13.5505 50.0018 13.4049 50.0018 13.2228V11.7297C50.0018 11.5295 49.8379 11.3838 49.6558 11.3838C49.0186 11.3838 48.7636 11.0014 48.7636 10.4188V1.42403C48.7636 1.24195 48.5998 1.07808 48.4177 1.07808H46.6151C46.433 1.07808 46.2874 1.24195 46.2874 1.42403V10.3641C46.2874 12.7676 47.2524 13.5505 49.6558 13.5505ZM55.4824 13.6962C52.7148 13.6962 50.7483 11.6751 50.7483 8.92571C50.7483 6.1581 52.7876 4.08239 55.5188 4.08239C58.2318 4.08239 60.2164 6.19452 60.2164 8.96213C60.2164 9.28987 60.1254 9.56299 59.7977 9.56299H53.5341C53.3703 9.56299 53.3156 9.65403 53.3338 9.79969C53.4613 10.8375 54.3717 11.6023 55.5552 11.6023C56.3382 11.6023 56.9026 11.2563 57.285 10.8193C57.4853 10.6008 57.6491 10.528 57.8676 10.528H59.5428C59.8341 10.528 59.9615 10.7283 59.8523 11.0196C59.2514 12.5673 57.5399 13.6962 55.4824 13.6962ZM53.5523 8.08815H57.3942C57.5217 8.08815 57.5763 8.03352 57.5581 7.88786C57.376 6.92284 56.5202 6.17631 55.4824 6.17631C54.4809 6.17631 53.6434 6.88642 53.4067 7.83323C53.3703 7.96069 53.3885 8.08815 53.5523 8.08815ZM62.3468 13.4595C62.1647 13.4595 62.019 13.2956 62.019 13.1135V1.42403C62.019 1.24195 62.1647 1.07808 62.3468 1.07808H68.0823C70.7042 1.07808 72.4886 2.60755 72.4886 5.17487C72.4886 7.68757 70.4675 9.32629 67.9548 9.32629H64.9141C64.6956 9.32629 64.5864 9.45374 64.5864 9.67224V13.1135C64.5864 13.2956 64.4225 13.4595 64.2404 13.4595H62.3468ZM64.8959 7.21416H67.9548C69.2112 7.21416 69.9031 6.13989 69.9031 5.19308C69.9031 4.19164 69.2294 3.24483 67.9548 3.24483H64.8959C64.6774 3.24483 64.5864 3.35408 64.5864 3.57257V6.88642C64.5864 7.10492 64.6774 7.21416 64.8959 7.21416ZM78.0238 13.6962C75.584 13.6962 73.5447 11.6387 73.5447 8.8893C73.5447 6.12169 75.6204 4.08239 78.0602 4.08239C79.0981 4.08239 79.8264 4.48297 80.4819 5.011C80.6458 5.15666 80.8279 5.13846 80.8279 4.91996V4.64684C80.8279 4.46476 80.9735 4.3191 81.1556 4.3191H82.8672C83.0492 4.3191 83.2131 4.48297 83.2131 4.66505V10.6919C83.2131 11.1471 83.377 11.3474 83.6865 11.3656C83.8504 11.3838 83.996 11.493 83.996 11.6569V13.241C83.996 13.4049 83.8686 13.5505 83.6865 13.5505C82.4848 13.5505 81.7747 13.2046 81.3741 12.5127C81.2649 12.3306 81.1374 12.2942 80.9553 12.4763C80.227 13.15 79.3894 13.6962 78.0238 13.6962ZM78.4426 11.4384C79.7718 11.4384 80.8279 10.3095 80.8279 8.8893C80.8279 7.45087 79.7718 6.34018 78.4426 6.34018C77.0952 6.34018 76.0392 7.46907 76.0392 8.8893C76.0392 10.2913 77.0952 11.4384 78.4426 11.4384ZM85.2706 17.01C87.929 17.01 89.2581 15.8994 90.5145 12.9315L93.9558 4.75609C94.0468 4.53759 93.883 4.3191 93.6463 4.3191H91.9165C91.7344 4.3191 91.6434 4.42835 91.5706 4.61043L89.5677 9.47195C89.4038 9.85432 89.1853 9.87252 89.0215 9.49016L86.9275 4.64684C86.8547 4.46476 86.7455 4.3191 86.5634 4.3191H84.7608C84.5423 4.3191 84.3602 4.51938 84.4695 4.81071L87.8197 12.3852C87.929 12.6401 87.9654 12.8404 87.8925 13.1135C87.6376 14.2242 86.4723 14.8615 85.2706 14.8615C85.0885 14.8615 84.9247 15.0072 84.9247 15.1893V16.6641C84.9247 16.8462 85.0885 17.01 85.2706 17.01Z" fill="black"/>
</svg>
