<svg width="48" height="32" viewBox="0 0 48 32" fill="none" xmlns="http://www.w3.org/2000/svg">
<g clip-path="url(#clip0_303_448)">
<rect width="48" height="32" rx="3.5" fill="#5A78FF"/>
</g>
<path fill-rule="evenodd" clip-rule="evenodd" d="M23.717 19.12C25.5092 18.5738 27.0254 18.2992 28.2656 18.2962C30.316 18.2911 32.0351 18.6981 33.4229 19.5172V13.5606C32.0281 12.8383 30.4521 12.4528 28.6949 12.4039C26.9377 12.3551 25.2784 12.713 23.717 13.4775V19.12Z" fill="white"/>
<path fill-rule="evenodd" clip-rule="evenodd" d="M20.8052 12.6346L23.017 17.8995V12.8538C24.1824 12.2298 25.4161 11.8298 26.7181 11.654C28.0202 11.4782 29.5002 11.5066 31.1581 11.7391L29.9552 8.86485C28.2124 8.75231 26.5522 9.03308 24.9746 9.70716C23.3969 10.3812 22.0071 11.3571 20.8052 12.6346Z" fill="white"/>
<path d="M25.1807 8.90361C24.9871 8.43392 24.6967 7.72939 24.3096 6.79002C23.9021 5.80141 22.7752 5.3283 21.7926 5.7333L15.7791 8.21188C14.7965 8.61688 14.3303 9.74661 14.7378 10.7352L20.5362 24.8031C20.9436 25.7917 22.0705 26.2648 23.0531 25.8598L29.0666 23.3813C30.0492 22.9763 30.5154 21.8465 30.1079 20.8579C29.7407 19.967 29.5011 19.3856 29.3891 19.1138C29.0619 19.0945 28.8225 19.0829 28.6709 19.079C28.5108 19.0748 28.2827 19.0743 27.9865 19.0775C28.1309 19.4277 28.4426 20.1842 28.9218 21.3468C29.0577 21.6763 28.9023 22.0529 28.5747 22.1879L22.5612 24.6665C22.2337 24.8015 21.8581 24.6438 21.7223 24.3142L15.9239 10.2463C15.7881 9.91681 15.9435 9.54023 16.271 9.40523L22.2845 6.92665C22.612 6.79165 22.9877 6.94935 23.1235 7.27889L24.004 9.41524C24.2757 9.28268 24.4845 9.18714 24.6305 9.12864C24.7765 9.07013 24.9599 8.99512 25.1807 8.90361Z" fill="white"/>
<defs>
<clipPath id="clip0_303_448">
<rect width="48" height="32" fill="white"/>
</clipPath>
</defs>
</svg>
