<svg width="94" height="17" viewBox="0 0 94 17" fill="none" xmlns="http://www.w3.org/2000/svg">
<path fill-rule="evenodd" clip-rule="evenodd" d="M0.31225 13.4594H2.38796C2.55183 13.4594 2.67928 13.3866 2.73391 13.2045L5.13736 5.6118C5.17378 5.46614 5.31944 5.46614 5.37406 5.6118L8.23271 13.1499C8.30554 13.3502 8.4148 13.4594 8.61508 13.4594H9.90785C10.0899 13.4594 10.2356 13.3684 10.3084 13.1499L13.076 5.6118C13.1307 5.46614 13.2945 5.46614 13.3309 5.6118L15.6798 13.2045C15.7162 13.3502 15.8254 13.4594 16.0075 13.4594H18.2107C18.4292 13.4594 18.5566 13.2956 18.4838 13.0589L14.8604 1.36935C14.8058 1.20547 14.6783 1.07802 14.5145 1.07802H12.6572C12.4934 1.07802 12.3477 1.22368 12.2931 1.36935L9.43444 8.74357C9.37981 8.90744 9.23415 8.88924 9.17953 8.74357L6.30267 1.36935C6.24805 1.22368 6.10238 1.07802 5.93851 1.07802H4.0813C3.91743 1.07802 3.78997 1.20547 3.73535 1.36935L0.0391287 13.0589C-0.0337032 13.3138 0.0937545 13.4594 0.31225 13.4594ZM23.9644 13.6961C21.1604 13.6961 19.0847 11.584 19.0847 8.88923C19.0847 6.17625 21.1604 4.08233 23.9644 4.08233C26.7866 4.08233 28.8441 6.17625 28.8441 8.88923C28.8441 11.584 26.7866 13.6961 23.9644 13.6961ZM23.9644 11.4384C25.2936 11.4384 26.3678 10.2912 26.3678 8.88923C26.3678 7.46901 25.2936 6.34012 23.9644 6.34012C22.6534 6.34012 21.5609 7.46901 21.5609 8.88923C21.5609 10.2912 22.6534 11.4384 23.9644 11.4384ZM35.6903 13.6961C34.6161 13.6961 33.8877 13.2591 33.214 12.7129C33.032 12.5672 32.8681 12.6219 32.8681 12.8768V13.1135C32.8681 13.2956 32.7224 13.4594 32.5403 13.4594H30.8288C30.6467 13.4594 30.4828 13.2956 30.4828 13.1135V1.42397C30.4828 1.24189 30.6467 1.07802 30.8288 1.07802H32.6314C32.8135 1.07802 32.9591 1.24189 32.9591 1.42397V4.75603C32.9591 4.99273 33.123 5.06556 33.3779 4.88348C33.9241 4.48291 34.7253 4.08233 35.7632 4.08233C38.2576 4.08233 40.1695 6.19446 40.1695 8.88923C40.1695 11.584 38.2212 13.6961 35.6903 13.6961ZM35.2715 11.4201C36.6189 11.4201 37.6932 10.2912 37.6932 8.88923C37.6932 7.46901 36.6189 6.34012 35.2715 6.34012C33.9606 6.34012 32.8863 7.45081 32.8863 8.88923C32.8863 10.3095 33.9424 11.4201 35.2715 11.4201ZM43.0645 3.3176C43.8111 3.3176 44.4483 2.68032 44.4483 1.93379C44.4483 1.18727 43.8111 0.549988 43.0645 0.549988C42.318 0.549988 41.6807 1.18727 41.6807 1.93379C41.6807 2.68032 42.318 3.3176 43.0645 3.3176ZM42.1359 13.4594H43.9385C44.1206 13.4594 44.2845 13.2956 44.2845 13.1135V4.66499C44.2845 4.48291 44.1206 4.31904 43.9385 4.31904H42.1359C41.9539 4.31904 41.8082 4.48291 41.8082 4.66499V13.1135C41.8082 13.2956 41.9539 13.4594 42.1359 13.4594ZM49.6558 13.5505C49.8379 13.5505 50.0018 13.4048 50.0018 13.2227V11.7297C50.0018 11.5294 49.8379 11.3837 49.6558 11.3837C49.0186 11.3837 48.7636 11.0014 48.7636 10.4187V1.42397C48.7636 1.24189 48.5998 1.07802 48.4177 1.07802H46.6151C46.433 1.07802 46.2874 1.24189 46.2874 1.42397V10.3641C46.2874 12.7675 47.2524 13.5505 49.6558 13.5505ZM55.4824 13.6961C52.7148 13.6961 50.7483 11.6751 50.7483 8.92565C50.7483 6.15804 52.7876 4.08233 55.5188 4.08233C58.2318 4.08233 60.2164 6.19446 60.2164 8.96207C60.2164 9.28981 60.1254 9.56293 59.7977 9.56293H53.5341C53.3703 9.56293 53.3156 9.65397 53.3338 9.79963C53.4613 10.8375 54.3717 11.6022 55.5552 11.6022C56.3382 11.6022 56.9026 11.2563 57.285 10.8193C57.4853 10.6008 57.6491 10.528 57.8676 10.528H59.5428C59.8341 10.528 59.9615 10.7282 59.8523 11.0196C59.2514 12.5672 57.5399 13.6961 55.4824 13.6961ZM53.5523 8.08809H57.3942C57.5217 8.08809 57.5763 8.03346 57.5581 7.8878C57.376 6.92278 56.5202 6.17625 55.4824 6.17625C54.4809 6.17625 53.6434 6.88636 53.4067 7.83317C53.3703 7.96063 53.3885 8.08809 53.5523 8.08809ZM62.3468 13.4594C62.1647 13.4594 62.019 13.2956 62.019 13.1135V1.42397C62.019 1.24189 62.1647 1.07802 62.3468 1.07802H68.0823C70.7042 1.07802 72.4886 2.60749 72.4886 5.17481C72.4886 7.68751 70.4675 9.32623 67.9548 9.32623H64.9141C64.6956 9.32623 64.5864 9.45368 64.5864 9.67218V13.1135C64.5864 13.2956 64.4225 13.4594 64.2404 13.4594H62.3468ZM64.8959 7.2141H67.9548C69.2112 7.2141 69.9031 6.13983 69.9031 5.19302C69.9031 4.19158 69.2294 3.24477 67.9548 3.24477H64.8959C64.6774 3.24477 64.5864 3.35401 64.5864 3.57251V6.88636C64.5864 7.10486 64.6774 7.2141 64.8959 7.2141ZM78.0238 13.6961C75.584 13.6961 73.5447 11.6386 73.5447 8.88923C73.5447 6.12162 75.6204 4.08233 78.0602 4.08233C79.0981 4.08233 79.8264 4.48291 80.4819 5.01094C80.6458 5.1566 80.8279 5.13839 80.8279 4.9199V4.64678C80.8279 4.4647 80.9735 4.31904 81.1556 4.31904H82.8672C83.0492 4.31904 83.2131 4.48291 83.2131 4.66499V10.6918C83.2131 11.147 83.377 11.3473 83.6865 11.3655C83.8504 11.3837 83.996 11.493 83.996 11.6568V13.2409C83.996 13.4048 83.8686 13.5505 83.6865 13.5505C82.4848 13.5505 81.7747 13.2045 81.3741 12.5126C81.2649 12.3305 81.1374 12.2941 80.9553 12.4762C80.227 13.1499 79.3894 13.6961 78.0238 13.6961ZM78.4426 11.4384C79.7718 11.4384 80.8279 10.3095 80.8279 8.88923C80.8279 7.45081 79.7718 6.34012 78.4426 6.34012C77.0952 6.34012 76.0392 7.46901 76.0392 8.88923C76.0392 10.2912 77.0952 11.4384 78.4426 11.4384ZM85.2706 17.01C87.929 17.01 89.2581 15.8993 90.5145 12.9314L93.9558 4.75603C94.0468 4.53753 93.883 4.31904 93.6463 4.31904H91.9165C91.7344 4.31904 91.6434 4.42828 91.5706 4.61036L89.5677 9.47189C89.4038 9.85426 89.1853 9.87246 89.0215 9.4901L86.9275 4.64678C86.8547 4.4647 86.7455 4.31904 86.5634 4.31904H84.7608C84.5423 4.31904 84.3602 4.51932 84.4695 4.81065L87.8197 12.3852C87.929 12.6401 87.9654 12.8404 87.8925 13.1135C87.6376 14.2242 86.4723 14.8614 85.2706 14.8614C85.0885 14.8614 84.9247 15.0071 84.9247 15.1892V16.664C84.9247 16.8461 85.0885 17.01 85.2706 17.01Z" fill="white"/>
</svg>
