<?xml version="1.0" encoding="UTF-8"?>
<svg id="a" xmlns="http://www.w3.org/2000/svg" xmlns:xlink="http://www.w3.org/1999/xlink" viewBox="0 0 32 32">
	<g>
		<path
			d="M2.33,0h27.33c1.29,0,2.33,1.57,2.33,3.5v25c0,1.93-1.04,3.5-2.33,3.5H2.33c-1.29,0-2.33-1.57-2.33-3.5V3.5C0,1.57,1.04,0,2.33,0Z"
			fill="#5a78ff" stroke-width="0"/>
	</g>
	<path
		d="M15.71,19.32c1.79-.55,3.31-.82,4.55-.82,2.05,0,3.77.4,5.16,1.22v-5.96c-1.39-.72-2.97-1.11-4.73-1.16-1.76-.05-3.42.31-4.98,1.07v5.64Z"
		fill="#fff" fill-rule="evenodd" stroke-width="0"/>
	<path
		d="M12.8,12.84l2.21,5.26v-5.05c1.17-.62,2.4-1.02,3.7-1.2,1.3-.18,2.78-.15,4.44.09l-1.2-2.87c-1.74-.11-3.4.17-4.98.84-1.58.67-2.97,1.65-4.17,2.93Z"
		fill="#fff" fill-rule="evenodd" stroke-width="0"/>
	<path
		d="M17.17,9.11c-.19-.47-.48-1.17-.87-2.11-.41-.99-1.53-1.46-2.52-1.06l-6.01,2.48c-.98.41-1.45,1.53-1.04,2.52l5.8,14.07c.41.99,1.53,1.46,2.52,1.06l6.01-2.48c.98-.41,1.45-1.53,1.04-2.52-.37-.89-.61-1.47-.72-1.74-.33-.02-.57-.03-.72-.03-.16,0-.39,0-.68,0,.14.35.46,1.11.94,2.27.14.33-.02.71-.35.84l-6.01,2.48c-.33.14-.7-.02-.84-.35l-5.8-14.07c-.14-.33.02-.71.35-.84l6.01-2.48c.33-.14.7.02.84.35l.88,2.14c.27-.13.48-.23.63-.29.15-.06.33-.13.55-.23Z"
		fill="#fff" stroke-width="0"/>
</svg>
