<svg width="64" height="18" viewBox="0 0 64 18" fill="none" xmlns="http://www.w3.org/2000/svg">
<path fill-rule="evenodd" clip-rule="evenodd" d="M63.9999 5.37837C63.2797 2.63066 61.5313 1.53998 59.1447 1.53998C57.211 1.53998 54.7841 2.63066 54.7841 5.25713C54.7841 6.95399 55.9565 8.28758 57.8693 8.63115L59.6796 8.95415C60.9141 9.17627 61.2638 9.64108 61.2638 10.2674C61.2638 10.9745 60.5027 11.3784 59.3713 11.3784C57.8903 11.3784 56.9645 10.8532 56.8204 9.37826L54.2081 9.78245C54.6192 12.6308 57.1699 13.8029 59.4738 13.8029C61.6546 13.8029 63.9791 12.5501 63.9791 10.0249C63.9791 8.30749 62.9298 7.05531 60.9755 6.69117L58.9804 6.3279C57.8693 6.12591 57.4993 5.58035 57.4993 5.05515C57.4993 4.38835 58.2191 3.96447 59.2066 3.96447C60.4616 3.96447 61.346 4.38835 61.3872 5.78234L63.9999 5.37837ZM5.925 9.70125L8.6399 1.84284H11.8283L7.09686 13.4994H4.73146L0 1.84306H3.18843L5.925 9.70125ZM22.6084 5.17636C22.6084 6.10554 21.8679 6.75198 21.0037 6.75198C20.1398 6.75198 19.3995 6.10554 19.3995 5.17636C19.3995 4.24696 20.1398 3.60074 21.0037 3.60074C21.8679 3.60074 22.6087 4.24696 22.6087 5.17636H22.6084ZM23.1019 9.29774C22.032 10.6711 20.9007 11.6206 18.9052 11.6207C16.8692 11.6207 15.2849 10.4086 14.0506 8.63094C13.5568 7.90353 12.7957 7.74203 12.2401 8.12587C11.7259 8.48958 11.6028 9.25725 12.0756 9.92405C13.7829 12.4897 16.1486 13.9843 18.905 13.9843C21.4356 13.9843 23.4106 12.7724 24.9531 10.7521C25.529 10.0048 25.5085 9.23712 24.9531 8.8128C24.4387 8.40839 23.6776 8.55041 23.1019 9.29774ZM30.1999 7.64093C30.1999 10.0249 31.5988 11.2776 33.1624 11.2776C34.6433 11.2776 36.1658 10.1057 36.1658 7.64093C36.1658 5.21645 34.6433 4.04502 33.1827 4.04502C31.5988 4.04502 30.1999 5.15605 30.1999 7.64093ZM30.1999 3.45938V1.86297H27.2995V17.54H30.1999V11.964C31.1668 13.2571 32.4216 13.8029 33.8408 13.8029C36.495 13.8029 39.0867 11.7421 39.0867 7.49975C39.0867 3.43881 36.3919 1.54018 34.0878 1.54018C32.2569 1.54018 31.0024 2.36826 30.1999 3.45938ZM44.1276 7.64093C44.1276 10.0249 45.5262 11.2776 47.0898 11.2776C48.5708 11.2776 50.093 10.1057 50.093 7.64093C50.093 5.21645 48.5708 4.04502 47.1102 4.04502C45.5262 4.04502 44.1273 5.15605 44.1273 7.64093H44.1276ZM44.1276 3.45938V1.86297H44.1273H41.227V17.54H44.1273V11.964C45.0943 13.2571 46.349 13.8029 47.7683 13.8029C50.4222 13.8029 53.0142 11.7421 53.0142 7.49975C53.0142 3.43881 50.3194 1.54018 48.0152 1.54018C46.1843 1.54018 44.9298 2.36826 44.1276 3.45938Z" fill="black"/>
</svg>
