<svg xmlns="http://www.w3.org/2000/svg" viewBox="0 0 805.55 378.52"><title>Artboard 1</title><path d="M805.55,145.19c-9.07-34.59-31.08-48.31-61.12-48.31-24.33,0-54.88,13.72-54.88,46.78,0,21.36,14.76,38.15,38.83,42.47l22.79,4.07c15.54,2.79,19.94,8.64,19.94,16.53,0,8.89-9.58,14-23.82,14-18.64,0-30.3-6.61-32.11-25.18l-32.88,5.09c5.17,35.85,37.28,50.61,66.28,50.61,27.45,0,56.7-15.77,56.7-47.56,0-21.61-13.2-37.37-37.8-42l-25.11-4.57c-14-2.54-18.65-9.41-18.65-16,0-8.39,9.06-13.73,21.49-13.73,15.8,0,26.93,5.34,27.45,22.88Zm-731,54.41,34.17-98.91h40.13L89.33,247.41H59.55L0,100.69H40.13Zm210-56.95c0,11.69-9.32,19.83-20.19,19.83s-20.2-8.14-20.2-19.83,9.32-19.83,20.2-19.83,20.2,8.13,20.2,19.83Zm6.22,51.87c-13.47,17.29-27.71,29.24-52.83,29.24-25.62,0-45.56-15.26-61.1-37.63-6.21-9.16-15.79-11.19-22.79-6.36-6.47,4.58-8,14.24-2.07,22.63,21.49,32.3,51.27,51.11,86,51.11,31.85,0,56.71-15.25,76.13-40.68,7.25-9.41,7-19.07,0-24.41C307.6,183.33,298,185.11,290.78,194.52Zm89.34-20.85c0,30,17.6,45.77,37.28,45.77,18.64,0,37.81-14.75,37.81-45.77,0-30.52-19.17-45.26-37.55-45.26C397.72,128.41,380.12,142.39,380.12,173.67Zm0-52.63v-20.1H343.61V298.26h36.51V228.08c12.17,16.28,28,23.15,45.82,23.15,33.41,0,66-25.94,66-79.34,0-51.11-33.92-75-62.92-75C406,96.88,390.22,107.3,380.12,121Zm175.3,52.63c0,30,17.6,45.77,37.28,45.77,18.64,0,37.8-14.75,37.8-45.77,0-30.52-19.16-45.26-37.54-45.26-19.94,0-37.54,14-37.54,45.26Zm0-52.63v-20.1H518.91V298.26h36.51V228.08c12.17,16.28,28,23.15,45.82,23.15,33.41,0,66-25.94,66-79.34,0-51.11-33.92-75-62.92-75C581.31,96.88,565.52,107.3,555.42,121Z" style="fill:#ff5b24;fill-rule:evenodd"/></svg>