<svg width="64" height="18" viewBox="0 0 64 18" fill="none" xmlns="http://www.w3.org/2000/svg">
<path fill-rule="evenodd" clip-rule="evenodd" d="M64 5.3784C63.2798 2.63069 61.5314 1.54001 59.1448 1.54001C57.2111 1.54001 54.7843 2.63069 54.7843 5.25716C54.7843 6.95402 55.9566 8.28761 57.8694 8.63118L59.6797 8.95418C60.9142 9.1763 61.2639 9.64111 61.2639 10.2674C61.2639 10.9745 60.5028 11.3785 59.3714 11.3785C57.8904 11.3785 56.9646 10.8532 56.8205 9.37829L54.2082 9.78248C54.6193 12.6309 57.17 13.8029 59.4739 13.8029C61.6547 13.8029 63.9793 12.5501 63.9793 10.025C63.9793 8.30752 62.9299 7.05534 60.9756 6.6912L58.9805 6.32793C57.8694 6.12594 57.4994 5.58038 57.4994 5.05518C57.4994 4.38838 58.2192 3.9645 59.2067 3.9645C60.4617 3.9645 61.3461 4.38838 61.3873 5.78237L64 5.3784ZM5.925 9.70128L8.6399 1.84287H11.8283L7.09686 13.4994H4.73146L0 1.84309H3.18843L5.925 9.70128ZM22.6083 5.17642C22.6083 6.1056 21.8678 6.75204 21.0036 6.75204C20.1397 6.75204 19.3993 6.1056 19.3993 5.17642C19.3993 4.24702 20.1397 3.60079 21.0036 3.60079C21.8678 3.60079 22.6086 4.24702 22.6086 5.17642H22.6083ZM23.1021 9.29777C22.0321 10.6711 20.9008 11.6206 18.9053 11.6207C16.8693 11.6207 15.285 10.4086 14.0507 8.63097C13.5569 7.90356 12.7958 7.74206 12.2402 8.1259C11.726 8.48961 11.6029 9.25728 12.0757 9.92408C13.783 12.4897 16.1487 13.9844 18.9051 13.9844C21.4357 13.9844 23.4107 12.7725 24.9533 10.7522C25.5291 10.0048 25.5086 9.23715 24.9533 8.81283C24.4388 8.40842 23.6777 8.55044 23.1021 9.29777ZM30.2 7.64094C30.2 10.0249 31.5989 11.2776 33.1625 11.2776C34.6434 11.2776 36.1659 10.1057 36.1659 7.64094C36.1659 5.21645 34.6434 4.04502 33.1828 4.04502C31.5989 4.04502 30.2 5.15605 30.2 7.64094ZM30.2 3.45941V1.863H27.2996V17.54H30.2V11.964C31.1669 13.2571 32.4217 13.8029 33.8409 13.8029C36.4951 13.8029 39.0868 11.7421 39.0868 7.49978C39.0868 3.43884 36.392 1.54021 34.0879 1.54021C32.257 1.54021 31.0025 2.36829 30.2 3.45941ZM44.1276 7.64094C44.1276 10.0249 45.5262 11.2776 47.0898 11.2776C48.5708 11.2776 50.093 10.1057 50.093 7.64094C50.093 5.21645 48.5708 4.04502 47.1102 4.04502C45.5262 4.04502 44.1273 5.15605 44.1273 7.64094H44.1276ZM44.1276 3.45941V1.863H44.1273H41.227V17.54H44.1273V11.964C45.0943 13.2571 46.349 13.8029 47.7683 13.8029C50.4222 13.8029 53.0142 11.7421 53.0142 7.49978C53.0142 3.43884 50.3194 1.54021 48.0152 1.54021C46.1843 1.54021 44.9298 2.36829 44.1276 3.45941Z" fill="white"/>
</svg>
