<?xml version="1.0" encoding="UTF-8"?>
<svg id="a" xmlns="http://www.w3.org/2000/svg" xmlns:xlink="http://www.w3.org/1999/xlink" viewBox="0 0 32 32">
	<defs>
		<clipPath id="b">
			<rect width="32" height="32" fill="none" stroke-width="0"/>
		</clipPath>
	</defs>
	<g clip-path="url(#b)">
		<path
			d="M2.33,0h27.33c1.29,0,2.33,1.57,2.33,3.5v25c0,1.93-1.04,3.5-2.33,3.5H2.33c-1.29,0-2.33-1.57-2.33-3.5V3.5C0,1.57,1.04,0,2.33,0Z"
			fill="#ff5b24" stroke-width="0"/>
		<path
			d="M19.86,12.26c1.38,0,2.56-1.05,2.56-2.55h0c0-1.5-1.18-2.55-2.56-2.55s-2.56,1.05-2.56,2.55,1.18,2.55,2.56,2.55ZM23.21,16.38c-1.7,2.22-3.51,3.76-6.69,3.76h0c-3.24,0-5.77-1.96-7.74-4.83-.79-1.18-2-1.44-2.89-.82-.82.59-1.02,1.83-.26,2.91,2.72,4.15,6.49,6.57,10.88,6.57,4.03,0,7.18-1.96,9.64-5.23.92-1.21.88-2.45,0-3.14-.82-.65-2.03-.42-2.95.78Z"
			fill="#fff" fill-rule="evenodd" stroke-width="0"/>
	</g>
</svg>
