<svg xmlns="http://www.w3.org/2000/svg" viewBox="0 0 210 40"><title>Artboard 1</title><rect width="210" height="40" rx="5" style="fill:#ff5b24"/><path d="M32.94,26c2.79,0,4.49-1.42,4.49-3.7a3.1,3.1,0,0,0-3-3.13V19a2.84,2.84,0,0,0,2.32-2.79c0-2-1.49-3.25-4-3.25H27.37V26ZM29.7,14.82h2.55c1.41,0,2.23.67,2.23,1.81S33.6,18.45,32,18.45H29.7Zm0,9.33v-4h2.62c1.78,0,2.72.68,2.72,2s-.91,2-2.63,2Zm14-6.45A2.23,2.23,0,0,1,46,20.1H41.3A2.36,2.36,0,0,1,43.67,17.7ZM46,23.28a2.2,2.2,0,0,1-2.2,1.14,2.45,2.45,0,0,1-2.48-2.67v-.12h6.9v-.72c0-3.12-1.69-5-4.51-5S39,17.92,39,21.09s1.75,5.11,4.66,5.11c2.33,0,4-1.12,4.39-2.92Zm5-9.58v2.48H49.39V18H51v5.39c0,1.92.91,2.69,3.18,2.69a6.65,6.65,0,0,0,1.17-.11V24.18a5.81,5.81,0,0,1-.76.05c-.94,0-1.35-.43-1.35-1.41V18H55.3V16.18H53.19V13.7Zm9.77,10.7c-1,0-1.71-.5-1.71-1.33s.59-1.25,1.84-1.33l2.23-.15v.79A2.17,2.17,0,0,1,60.72,24.4Zm-.66,1.76A3.29,3.29,0,0,0,63,24.65h.15V26H65.3V19.25c0-2.09-1.43-3.33-4-3.33-2.35,0-4,1.11-4.16,2.85h2.11c.21-.67.91-1,1.94-1,1.21,0,1.86.55,1.86,1.51v.83l-2.54.16c-2.41.14-3.75,1.17-3.75,3A3,3,0,0,0,60.06,26.16ZM67.89,26h2.24V12.3H67.89Zm9.61,0h2.24V20a2,2,0,0,1,1.93-2.12,1.64,1.64,0,0,1,1.79,1.74V26h2.18V19.85a1.87,1.87,0,0,1,1.93-2c1.2,0,1.81.63,1.81,1.91V26h2.23V19.21a3,3,0,0,0-3.17-3.29,3.19,3.19,0,0,0-3,1.8h-.16a2.71,2.71,0,0,0-2.72-1.8,2.79,2.79,0,0,0-2.75,1.8h-.15v-1.6H77.5Zm20.71-8.3a2.24,2.24,0,0,1,2.28,2.4H95.83A2.36,2.36,0,0,1,98.21,17.7Zm2.29,5.58a2.19,2.19,0,0,1-2.2,1.14,2.45,2.45,0,0,1-2.47-2.67v-.12h6.9v-.72c0-3.12-1.69-5-4.51-5s-4.64,2-4.64,5.17,1.75,5.11,4.66,5.11c2.33,0,4-1.12,4.39-2.92Zm7.85,2.88a3.32,3.32,0,0,0,3.07-1.72h.16V26h2.17V12.3H111.5v5.39h-.15a3.2,3.2,0,0,0-3-1.73c-2.49,0-4.06,2-4.06,5.09S105.85,26.16,108.35,26.16Zm.7-8.3c1.53,0,2.48,1.23,2.48,3.2s-.94,3.2-2.48,3.2-2.47-1.2-2.47-3.2S107.52,17.86,109.05,17.86Z" style="fill:#fff"/><path d="M185,17.84A4.59,4.59,0,0,0,180.15,14c-1.94,0-4.37,1.09-4.37,3.72a3.43,3.43,0,0,0,3.09,3.37l1.81.32c1.23.23,1.58.69,1.58,1.32s-.76,1.11-1.89,1.11c-1.48,0-2.41-.53-2.55-2l-2.61.4c.41,2.85,3,4,5.26,4S185,25,185,22.48a3.29,3.29,0,0,0-3-3.33l-2-.36c-1.11-.2-1.48-.75-1.48-1.27s.72-1.1,1.71-1.1c1.25,0,2.14.43,2.18,1.82Zm-58.07,4.32,2.71-7.86h3.19L128.1,26h-2.37L121,14.3h3.19Zm16.68-4.52A1.61,1.61,0,1,1,142,16.06a1.56,1.56,0,0,1,1.61,1.58Zm.49,4.12a5,5,0,0,1-4.2,2.32c-2,0-3.61-1.21-4.85-3a1.27,1.27,0,0,0-1.81-.5,1.25,1.25,0,0,0-.16,1.79,8.15,8.15,0,0,0,6.82,4.06,7.38,7.38,0,0,0,6-3.23c.58-.75.56-1.51,0-1.94S144.68,21,144.1,21.76Zm7.1-1.66c0,2.38,1.4,3.64,3,3.64s3-1.17,3-3.64-1.53-3.6-3-3.6S151.2,17.62,151.2,20.1Zm0-4.18v-1.6h-2.9V30h2.9V24.42a4.32,4.32,0,0,0,3.64,1.84c2.65,0,5.25-2.06,5.25-6.3,0-4.06-2.7-6-5-6A4.62,4.62,0,0,0,151.2,15.92Zm13.93,4.18c0,2.38,1.4,3.64,3,3.64s3-1.17,3-3.64-1.52-3.6-3-3.6-3,1.12-3,3.6Zm0-4.18v-1.6h-2.9V30h2.9V24.42a4.31,4.31,0,0,0,3.64,1.84c2.65,0,5.24-2.06,5.24-6.3,0-4.06-2.69-6-5-6A4.6,4.6,0,0,0,165.13,15.92Z" style="fill:#fff;fill-rule:evenodd"/></svg>