<svg width="48" height="32" viewBox="0 0 48 32" fill="none" xmlns="http://www.w3.org/2000/svg">
<g clip-path="url(#clip0_1_973)">
<rect width="48" height="32" rx="3.5" fill="#FF5B24"/>
<path fill-rule="evenodd" clip-rule="evenodd" d="M27.8642 12.2624C29.2412 12.2624 30.4213 11.2171 30.4213 9.71444H30.4217C30.4217 8.21148 29.2412 7.16644 27.8642 7.16644C26.4875 7.16644 25.3078 8.21148 25.3078 9.71444C25.3078 11.2171 26.4875 12.2624 27.8642 12.2624ZM31.2079 16.3794C29.5029 18.6004 27.7 20.1359 24.5201 20.1359H24.5204C21.276 20.1359 18.7513 18.1757 16.7846 15.3011C15.9976 14.1247 14.7848 13.8636 13.8995 14.4843C13.0802 15.0724 12.8839 16.3139 13.6374 17.3922C16.358 21.5412 20.1276 23.9582 24.5201 23.9582C28.5525 23.9582 31.6997 21.9984 34.1578 18.7313C35.0755 17.5228 35.0427 16.2813 34.1578 15.5951C33.3381 14.9412 32.1252 15.1708 31.2079 16.3794Z" fill="white"/>
</g>
<defs>
<clipPath id="clip0_1_973">
<rect width="48" height="32" fill="white"/>
</clipPath>
</defs>
</svg>

