<svg width="148" height="48" viewBox="0 0 148 48" fill="none" xmlns="http://www.w3.org/2000/svg">
<rect width="148" height="48" rx="5" fill="#5A78FF"/>
<path fill-rule="evenodd" clip-rule="evenodd" d="M30.8903 14.9067C30.7913 14.9067 30.6911 14.9255 30.5944 14.9661L24.5083 17.4978C24.3166 17.5775 24.167 17.7274 24.0879 17.9199C24.0082 18.1122 24.0082 18.3241 24.0879 18.5167L29.8989 32.6062C30.0629 33.0037 30.5191 33.1931 30.9132 33.0284L36.9993 30.4964C37.3951 30.3317 37.5836 29.8748 37.4199 29.4772L31.609 15.388C31.4851 15.0879 31.1952 14.9067 30.8903 14.9067ZM30.6196 34C29.959 34 29.3311 33.6071 29.0629 32.9573L23.2519 18.8675C23.0801 18.4508 23.0801 17.9915 23.2519 17.5746C23.424 17.1576 23.7473 16.8328 24.1625 16.6603L30.2486 14.1284C31.1049 13.7726 32.0912 14.1817 32.4466 15.0426L38.2576 29.1321C38.6121 29.993 38.2039 30.9832 37.3472 31.3396L31.2611 33.8715C31.0512 33.9588 30.8335 34 30.6196 34Z" fill="url(#paint0_radial_4525_243536)"/>
<path fill-rule="evenodd" clip-rule="evenodd" d="M36.0465 24.4073C34.2837 25.1356 32.812 26.1422 31.848 27.3536L29.3635 21.3654C30.4176 20.0994 31.7989 19.1476 33.5617 18.4194C35.3252 17.6911 37.1059 17.3369 38.6187 17.5426L41.1035 23.5306C39.5322 23.3666 37.8097 23.6794 36.0465 24.4073Z" fill="url(#paint1_linear_4525_243536)"/>
<path fill-rule="evenodd" clip-rule="evenodd" d="M36.0465 24.4073C34.2837 25.1356 32.812 26.1422 31.848 27.3536L29.3635 21.3654C30.4176 20.0994 31.7989 19.1476 33.5617 18.4194C35.3252 17.6911 37.1059 17.3369 38.6187 17.5426L41.1035 23.5306C39.5322 23.3666 37.8097 23.6794 36.0465 24.4073Z" fill="url(#paint2_radial_4525_243536)"/>
<path fill-rule="evenodd" clip-rule="evenodd" d="M36.8775 26.2456C34.9734 26.2453 33.231 26.6094 31.8787 27.352L31.8795 21.3649C33.336 20.6061 34.9743 20.2579 36.8784 20.2582C38.7825 20.2585 40.5603 20.6073 41.877 21.3663L41.8761 27.3534C40.49 26.6102 38.7817 26.2459 36.8775 26.2456Z" fill="white"/>
<path d="M49.5711 16.724H58.5381V19.202H52.3851V22.31H57.8031V24.788H52.3851V28.022H58.7271V30.5H49.5711V16.724ZM70.6495 19.916L66.7855 25.355L70.6495 30.5H67.5625L65.1055 26.951L62.7535 30.5H59.6455L63.5515 25.166L59.6455 19.916H62.7535L65.2315 23.57L67.5625 19.916H70.6495ZM78.2592 19.622C80.4012 19.622 82.9002 21.344 82.9002 25.04C82.9002 28.904 80.5062 30.773 78.0492 30.773C76.7262 30.773 75.6132 30.08 74.7522 28.673V34.175H72.0642V19.916H74.7522V21.827C75.4242 20.651 76.5372 19.622 78.2592 19.622ZM77.4402 21.911C76.0332 21.911 74.7522 22.919 74.7522 25.166C74.7522 27.308 76.0332 28.463 77.4192 28.463C78.7632 28.463 80.1492 27.413 80.1492 25.166C80.1492 22.982 78.7632 21.911 77.4402 21.911ZM90.4647 22.457C89.0367 22.457 87.6927 23.234 87.6927 25.943V30.5H85.0047V19.916H87.6927V22.457C88.5537 20.168 90.2337 19.622 91.2417 19.622C91.5147 19.622 91.8297 19.664 92.0607 19.769L91.8507 22.688C91.4517 22.541 91.0317 22.457 90.4647 22.457ZM98.1178 21.911C96.7318 21.911 95.7868 22.646 95.4928 24.137H100.701C100.512 22.562 99.4408 21.911 98.1178 21.911ZM103.242 25.88H95.4508C95.6608 27.497 96.5848 28.505 98.2648 28.505C99.8818 28.505 100.47 27.812 100.743 26.783L103.179 27.14C102.759 29.639 100.344 30.773 98.3698 30.773C95.1778 30.773 92.6998 28.652 92.6998 25.166C92.6998 21.764 95.0518 19.622 98.1808 19.622C101.121 19.622 103.242 21.869 103.242 25.04V25.88ZM104.972 22.961C104.972 20.567 107.219 19.622 109.046 19.622C111.272 19.622 112.889 20.609 113.519 22.877L111.104 23.297C111.041 22.121 110.243 21.68 109.109 21.68C108.185 21.68 107.576 22.1 107.576 22.772C107.576 23.234 107.891 23.717 108.794 23.906L110.999 24.368C112.826 24.725 113.687 25.754 113.687 27.287C113.687 29.513 111.587 30.773 109.361 30.773C107.177 30.773 104.825 29.786 104.489 27.35L106.883 26.93C107.009 28.064 107.912 28.715 109.256 28.715C110.39 28.715 111.083 28.295 111.083 27.518C111.083 26.972 110.768 26.615 109.634 26.384L107.618 25.964C105.812 25.586 104.972 24.473 104.972 22.961ZM115.39 22.961C115.39 20.567 117.637 19.622 119.464 19.622C121.69 19.622 123.307 20.609 123.937 22.877L121.522 23.297C121.459 22.121 120.661 21.68 119.527 21.68C118.603 21.68 117.994 22.1 117.994 22.772C117.994 23.234 118.309 23.717 119.212 23.906L121.417 24.368C123.244 24.725 124.105 25.754 124.105 27.287C124.105 29.513 122.005 30.773 119.779 30.773C117.595 30.773 115.243 29.786 114.907 27.35L117.301 26.93C117.427 28.064 118.33 28.715 119.674 28.715C120.808 28.715 121.501 28.295 121.501 27.518C121.501 26.972 121.186 26.615 120.052 26.384L118.036 25.964C116.23 25.586 115.39 24.473 115.39 22.961Z" fill="white"/>
<defs>
<radialGradient id="paint0_radial_4525_243536" cx="0" cy="0" r="1" gradientUnits="userSpaceOnUse" gradientTransform="translate(34.2713 22.9006) rotate(-78.9053) scale(5.75675 4.50975)">
<stop stop-color="#626262"/>
<stop offset="1" stop-color="white"/>
</radialGradient>
<linearGradient id="paint1_linear_4525_243536" x1="33.5357" y1="29.8341" x2="38.8814" y2="26.1571" gradientUnits="userSpaceOnUse">
<stop stop-color="#D3D0DD"/>
<stop offset="1" stop-color="white"/>
</linearGradient>
<radialGradient id="paint2_radial_4525_243536" cx="0" cy="0" r="1" gradientUnits="userSpaceOnUse" gradientTransform="translate(36.6101 22.6652) rotate(90) scale(3.78291 8.72279)">
<stop stop-color="#DAD7E2"/>
<stop offset="0.581832" stop-color="#D9D6E2"/>
<stop offset="1" stop-color="white" stop-opacity="0.01"/>
</radialGradient>
</defs>
</svg>
