<?xml version="1.0" encoding="UTF-8"?>
<svg id="Layer_1" data-name="Layer 1" xmlns="http://www.w3.org/2000/svg" viewBox="0 0 84.39 15.05">
  <defs>
    <style>
      .cls-1 {
        fill: #fff;
        fill-rule: evenodd;
      }
    </style>
  </defs>
  <path class="cls-1" d="M.27,11.8h1.88c.15,0,.26-.07.31-.23l2.18-6.94c.03-.13.16-.13.21,0l2.59,6.89c.07.18.16.28.35.28h1.17c.16,0,.3-.08.36-.28l2.5-6.89c.05-.13.2-.13.23,0l2.13,6.94c.03.13.13.23.3.23h1.99c.2,0,.31-.15.25-.37L13.43.75c-.05-.15-.16-.27-.31-.27h-1.68c-.15,0-.28.13-.33.27l-2.59,6.74c-.05.15-.18.13-.23,0L5.69.75c-.05-.13-.18-.27-.33-.27h-1.68c-.15,0-.26.12-.31.27L.02,11.44c-.07.23.05.37.25.37ZM21.67,12.02c-2.54,0-4.42-1.93-4.42-4.4s1.88-4.4,4.42-4.4,4.42,1.91,4.42,4.4-1.86,4.4-4.42,4.4ZM21.67,9.96c1.2,0,2.18-1.05,2.18-2.33s-.97-2.33-2.18-2.33-2.18,1.03-2.18,2.33.99,2.33,2.18,2.33ZM32.29,12.02c-.97,0-1.63-.4-2.24-.9-.16-.13-.31-.08-.31.15v.22c0,.17-.13.32-.3.32h-1.55c-.16,0-.31-.15-.31-.32V.8c0-.17.15-.32.31-.32h1.63c.16,0,.3.15.3.32v3.05c0,.22.15.28.38.12.49-.37,1.22-.73,2.16-.73,2.26,0,3.99,1.93,3.99,4.4s-1.76,4.4-4.05,4.4ZM31.91,9.94c1.22,0,2.19-1.03,2.19-2.31s-.97-2.33-2.19-2.33-2.16,1.02-2.16,2.33.96,2.31,2.16,2.31ZM38.96,2.53c.68,0,1.25-.58,1.25-1.27s-.58-1.27-1.25-1.27-1.25.58-1.25,1.27.58,1.27,1.25,1.27ZM38.12,11.8h1.63c.16,0,.31-.15.31-.32V3.76c0-.17-.15-.32-.31-.32h-1.63c-.16,0-.3.15-.3.32v7.73c0,.17.13.32.3.32ZM44.92,11.89c.16,0,.31-.13.31-.3v-1.37c0-.18-.15-.32-.31-.32-.58,0-.81-.35-.81-.88V.8c0-.17-.15-.32-.31-.32h-1.63c-.16,0-.3.15-.3.32v8.18c0,2.2.87,2.91,3.05,2.91ZM50.2,12.02c-2.5,0-4.28-1.85-4.28-4.36s1.85-4.43,4.32-4.43,4.25,1.93,4.25,4.46c0,.3-.08.55-.38.55h-5.67c-.15,0-.2.08-.18.22.12.95.94,1.65,2.01,1.65.71,0,1.22-.32,1.57-.72.18-.2.33-.27.53-.27h1.52c.26,0,.38.18.28.45-.54,1.42-2.09,2.45-3.96,2.45ZM48.45,6.89h3.48c.12,0,.16-.05.15-.18-.16-.88-.94-1.57-1.88-1.57s-1.66.65-1.88,1.52c-.03.12-.02.23.13.23ZM56.08,11.8c-.16,0-.3-.15-.3-.32V.8c0-.17.13-.32.3-.32h5.19c2.37,0,3.99,1.4,3.99,3.75s-1.83,3.8-4.1,3.8h-2.75c-.2,0-.3.12-.3.32v3.15c0,.17-.15.32-.31.32h-1.71ZM58.39,6.09h2.77c1.14,0,1.76-.98,1.76-1.85,0-.92-.61-1.78-1.76-1.78h-2.77c-.2,0-.28.1-.28.3v3.03c0,.2.08.3.28.3ZM70.11,12.02c-2.21,0-4.05-1.88-4.05-4.4s1.88-4.4,4.09-4.4c.94,0,1.6.37,2.19.85.15.13.31.12.31-.08v-.25c0-.17.13-.3.3-.3h1.55c.16,0,.31.15.31.32v5.51c0,.42.15.6.43.62.15.02.28.12.28.27v1.45c0,.15-.12.28-.28.28-1.09,0-1.73-.32-2.09-.95-.1-.17-.21-.2-.38-.03-.66.62-1.42,1.12-2.65,1.12ZM70.49,9.96c1.2,0,2.16-1.03,2.16-2.33s-.96-2.33-2.16-2.33-2.18,1.03-2.18,2.33.96,2.33,2.18,2.33ZM76.51,15.05c2.41,0,3.61-1.02,4.75-3.73l3.11-7.48c.08-.2-.07-.4-.28-.4h-1.57c-.16,0-.25.1-.31.27l-1.81,4.45c-.15.35-.35.37-.49.02l-1.9-4.43c-.07-.17-.16-.3-.33-.3h-1.63c-.2,0-.36.18-.26.45l3.03,6.93c.1.23.13.42.07.67-.23,1.02-1.29,1.6-2.37,1.6-.16,0-.31.13-.31.3v1.35c0,.17.15.32.31.32Z"/>
</svg>