<svg width="250" height="44" viewBox="0 0 250 44" fill="none" xmlns="http://www.w3.org/2000/svg">
<rect width="250" height="44" rx="5" fill="#5A78FF"/>
<path d="M38.9444 28.5V15.4651H44.1475C46.7942 15.4651 48.5828 17.2085 48.5828 19.8191V19.8372C48.5828 22.4387 46.7942 24.1912 44.1475 24.1912H41.275V28.5H38.9444ZM43.5784 17.3711H41.275V22.3123H43.5784C45.2496 22.3123 46.2251 21.4089 46.2251 19.8462V19.8281C46.2251 18.2654 45.2496 17.3711 43.5784 17.3711ZM53.053 28.6626C51.1741 28.6626 49.8101 27.5063 49.8101 25.7087V25.6907C49.8101 23.9292 51.156 22.8994 53.5588 22.7549L56.0972 22.6013V21.7522C56.0972 20.7676 55.4558 20.2256 54.2454 20.2256C53.2156 20.2256 52.5471 20.5959 52.3213 21.2463L52.3123 21.2825H50.1895L50.1985 21.2012C50.4153 19.5391 52.0051 18.437 54.3538 18.437C56.8921 18.437 58.3193 19.6655 58.3193 21.7522V28.5H56.0972V27.145H55.9436C55.4016 28.1025 54.3538 28.6626 53.053 28.6626ZM52.0322 25.6003C52.0322 26.4404 52.7459 26.9373 53.7395 26.9373C55.0945 26.9373 56.0972 26.052 56.0972 24.8777V24.0828L53.875 24.2273C52.6194 24.3086 52.0322 24.7693 52.0322 25.5823V25.6003ZM61.57 31.9688C61.299 31.9688 60.9829 31.9597 60.7119 31.9326V30.2073C60.8925 30.2253 61.1455 30.2344 61.3803 30.2344C62.3017 30.2344 62.8527 29.855 63.0966 28.9607L63.2141 28.509L59.6821 18.6267H62.1391L64.4426 26.3411H64.6142L66.9086 18.6267H69.2753L65.7343 28.7078C64.8852 31.1829 63.7561 31.9688 61.57 31.9688ZM77.6195 28.5L74.9457 18.6267H77.204L78.848 26.043H79.0016L80.8985 18.6267H83.0394L84.9544 26.043H85.108L86.743 18.6267H88.9742L86.3004 28.5H83.9427L82.0187 21.3457H81.8651L79.9501 28.5H77.6195ZM91.8907 16.9736C91.15 16.9736 90.5447 16.3865 90.5447 15.6458C90.5447 14.9141 91.15 14.3179 91.8907 14.3179C92.6224 14.3179 93.2276 14.9141 93.2276 15.6458C93.2276 16.3865 92.6224 16.9736 91.8907 16.9736ZM90.7615 28.5V18.6267H93.0108V28.5H90.7615ZM99.4592 28.5452C97.1919 28.5452 96.2615 27.7864 96.2615 25.8804V20.3701H94.7258V18.6267H96.2615V16.2058H98.5469V18.6267H100.634V20.3701H98.5469V25.3474C98.5469 26.332 98.9353 26.7476 99.8748 26.7476C100.191 26.7476 100.363 26.7385 100.634 26.7114V28.4458C100.308 28.509 99.8928 28.5452 99.4592 28.5452ZM102.764 28.5V14.8057H105.013V20.1353H105.167C105.637 19.0784 106.585 18.437 108.012 18.437C110.217 18.437 111.418 19.7649 111.418 22.1135V28.5H109.169V22.6375C109.169 21.1018 108.545 20.325 107.181 20.325C105.844 20.325 105.013 21.2644 105.013 22.7458V28.5H102.764Z" fill="white"/>
<path fill-rule="evenodd" clip-rule="evenodd" d="M119.312 28.4594H121.388C121.552 28.4594 121.679 28.3866 121.734 28.2045L124.137 20.6118C124.174 20.4661 124.319 20.4661 124.374 20.6118L127.233 28.1499C127.306 28.3502 127.415 28.4594 127.615 28.4594H128.908C129.09 28.4594 129.236 28.3684 129.308 28.1499L132.076 20.6118C132.131 20.4661 132.295 20.4661 132.331 20.6118L134.68 28.2045C134.716 28.3502 134.825 28.4594 135.008 28.4594H137.211C137.429 28.4594 137.557 28.2956 137.484 28.0589L133.86 16.3693C133.806 16.2055 133.678 16.078 133.514 16.078H131.657C131.493 16.078 131.348 16.2237 131.293 16.3693L128.434 23.7436C128.38 23.9074 128.234 23.8892 128.18 23.7436L125.303 16.3693C125.248 16.2237 125.102 16.078 124.939 16.078H123.081C122.917 16.078 122.79 16.2055 122.735 16.3693L119.039 28.0589C118.966 28.3138 119.094 28.4594 119.312 28.4594ZM142.964 28.6961C140.16 28.6961 138.085 26.584 138.085 23.8892C138.085 21.1762 140.16 19.0823 142.964 19.0823C145.787 19.0823 147.844 21.1762 147.844 23.8892C147.844 26.584 145.787 28.6961 142.964 28.6961ZM142.964 26.4384C144.294 26.4384 145.368 25.2912 145.368 23.8892C145.368 22.469 144.294 21.3401 142.964 21.3401C141.653 21.3401 140.561 22.469 140.561 23.8892C140.561 25.2912 141.653 26.4384 142.964 26.4384ZM154.69 28.6961C153.616 28.6961 152.888 28.2591 152.214 27.7129C152.032 27.5672 151.868 27.6219 151.868 27.8768V28.1135C151.868 28.2956 151.722 28.4594 151.54 28.4594H149.829C149.647 28.4594 149.483 28.2956 149.483 28.1135V16.424C149.483 16.2419 149.647 16.078 149.829 16.078H151.631C151.813 16.078 151.959 16.2419 151.959 16.424V19.756C151.959 19.9927 152.123 20.0656 152.378 19.8835C152.924 19.4829 153.725 19.0823 154.763 19.0823C157.258 19.0823 159.169 21.1945 159.169 23.8892C159.169 26.584 157.221 28.6961 154.69 28.6961ZM154.272 26.4201C155.619 26.4201 156.693 25.2912 156.693 23.8892C156.693 22.469 155.619 21.3401 154.272 21.3401C152.961 21.3401 151.886 22.4508 151.886 23.8892C151.886 25.3095 152.942 26.4201 154.272 26.4201ZM162.065 18.3176C162.811 18.3176 163.448 17.6803 163.448 16.9338C163.448 16.1873 162.811 15.55 162.065 15.55C161.318 15.55 160.681 16.1873 160.681 16.9338C160.681 17.6803 161.318 18.3176 162.065 18.3176ZM161.136 28.4594H162.939C163.121 28.4594 163.284 28.2956 163.284 28.1135V19.665C163.284 19.4829 163.121 19.319 162.939 19.319H161.136C160.954 19.319 160.808 19.4829 160.808 19.665V28.1135C160.808 28.2956 160.954 28.4594 161.136 28.4594ZM168.656 28.5505C168.838 28.5505 169.002 28.4048 169.002 28.2227V26.7297C169.002 26.5294 168.838 26.3837 168.656 26.3837C168.019 26.3837 167.764 26.0014 167.764 25.4187V16.424C167.764 16.2419 167.6 16.078 167.418 16.078H165.615C165.433 16.078 165.287 16.2419 165.287 16.424V25.3641C165.287 27.7675 166.252 28.5505 168.656 28.5505ZM174.482 28.6961C171.715 28.6961 169.748 26.6751 169.748 23.9257C169.748 21.158 171.788 19.0823 174.519 19.0823C177.232 19.0823 179.216 21.1945 179.216 23.9621C179.216 24.2898 179.125 24.5629 178.798 24.5629H172.534C172.37 24.5629 172.316 24.654 172.334 24.7996C172.461 25.8375 173.372 26.6022 174.555 26.6022C175.338 26.6022 175.903 26.2563 176.285 25.8193C176.485 25.6008 176.649 25.528 176.868 25.528H178.543C178.834 25.528 178.962 25.7282 178.852 26.0196C178.251 27.5672 176.54 28.6961 174.482 28.6961ZM172.552 23.0881H176.394C176.522 23.0881 176.576 23.0335 176.558 22.8878C176.376 21.9228 175.52 21.1762 174.482 21.1762C173.481 21.1762 172.643 21.8864 172.407 22.8332C172.37 22.9606 172.388 23.0881 172.552 23.0881ZM181.347 28.4594C181.165 28.4594 181.019 28.2956 181.019 28.1135V16.424C181.019 16.2419 181.165 16.078 181.347 16.078H187.082C189.704 16.078 191.489 17.6075 191.489 20.1748C191.489 22.6875 189.468 24.3262 186.955 24.3262H183.914C183.696 24.3262 183.586 24.4537 183.586 24.6722V28.1135C183.586 28.2956 183.422 28.4594 183.24 28.4594H181.347ZM183.896 22.2141H186.955C188.211 22.2141 188.903 21.1398 188.903 20.193C188.903 19.1916 188.229 18.2448 186.955 18.2448H183.896C183.677 18.2448 183.586 18.354 183.586 18.5725V21.8864C183.586 22.1049 183.677 22.2141 183.896 22.2141ZM197.024 28.6961C194.584 28.6961 192.545 26.6386 192.545 23.8892C192.545 21.1216 194.62 19.0823 197.06 19.0823C198.098 19.0823 198.826 19.4829 199.482 20.0109C199.646 20.1566 199.828 20.1384 199.828 19.9199V19.6468C199.828 19.4647 199.974 19.319 200.156 19.319H201.867C202.049 19.319 202.213 19.4829 202.213 19.665V25.6918C202.213 26.147 202.377 26.3473 202.687 26.3655C202.85 26.3837 202.996 26.493 202.996 26.6568V28.2409C202.996 28.4048 202.869 28.5505 202.687 28.5505C201.485 28.5505 200.775 28.2045 200.374 27.5126C200.265 27.3305 200.137 27.2941 199.955 27.4762C199.227 28.1499 198.389 28.6961 197.024 28.6961ZM197.443 26.4384C198.772 26.4384 199.828 25.3095 199.828 23.8892C199.828 22.4508 198.772 21.3401 197.443 21.3401C196.095 21.3401 195.039 22.469 195.039 23.8892C195.039 25.2912 196.095 26.4384 197.443 26.4384ZM204.271 32.01C206.929 32.01 208.258 30.8993 209.514 27.9314L212.956 19.756C213.047 19.5375 212.883 19.319 212.646 19.319H210.917C210.734 19.319 210.643 19.4283 210.571 19.6104L208.568 24.4719C208.404 24.8543 208.185 24.8725 208.021 24.4901L205.928 19.6468C205.855 19.4647 205.745 19.319 205.563 19.319H203.761C203.542 19.319 203.36 19.5193 203.469 19.8107L206.82 27.3852C206.929 27.6401 206.965 27.8404 206.893 28.1135C206.638 29.2242 205.472 29.8614 204.271 29.8614C204.089 29.8614 203.925 30.0071 203.925 30.1892V31.664C203.925 31.8461 204.089 32.01 204.271 32.01Z" fill="white"/>
</svg>
