<svg width="250" height="44" viewBox="0 0 250 44" fill="none" xmlns="http://www.w3.org/2000/svg">
<rect width="250" height="44" rx="5" fill="#FF5B24"/>
<path d="M46.8444 28.5V15.4651H52.2915C54.7666 15.4651 56.257 16.7117 56.257 18.708V18.7261C56.257 20.0901 55.2453 21.3005 53.9355 21.5083V21.6709C55.6879 21.8335 56.8984 23.0981 56.8984 24.7874V24.8054C56.8984 27.0908 55.2001 28.5 52.4179 28.5H46.8444ZM51.7224 17.2808H49.175V20.9573H51.4243C53.0773 20.9573 53.9536 20.3159 53.9536 19.1326V19.1145C53.9536 17.9583 53.1315 17.2808 51.7224 17.2808ZM51.7946 22.6104H49.175V26.6843H51.885C53.6013 26.6843 54.5136 25.9707 54.5136 24.6428V24.6248C54.5136 23.3059 53.5742 22.6104 51.7946 22.6104ZM63.2294 28.6987C60.2936 28.6987 58.5141 26.7295 58.5141 23.5859V23.5769C58.5141 20.4695 60.3117 18.437 63.121 18.437C65.9303 18.437 67.6647 20.4062 67.6647 23.3872V24.1279H60.7633C60.7904 25.8984 61.7479 26.9282 63.2746 26.9282C64.494 26.9282 65.1896 26.314 65.4064 25.8623L65.4335 25.7991H67.5744L67.5473 25.8804C67.2311 27.1541 65.9123 28.6987 63.2294 28.6987ZM63.1481 20.1985C61.8925 20.1985 60.953 21.0476 60.7814 22.6194H65.4696C65.3161 21.0024 64.4037 20.1985 63.1481 20.1985ZM73.5982 28.5452C71.3309 28.5452 70.4005 27.7864 70.4005 25.8804V20.3701H68.8648V18.6267H70.4005V16.2058H72.6859V18.6267H74.7726V20.3701H72.6859V25.3474C72.6859 26.332 73.0743 26.7476 74.0138 26.7476C74.3299 26.7476 74.5016 26.7385 74.7726 26.7114V28.4458C74.4474 28.509 74.0318 28.5452 73.5982 28.5452ZM79.5047 28.6626C77.6258 28.6626 76.2618 27.5063 76.2618 25.7087V25.6907C76.2618 23.9292 77.6077 22.8994 80.0105 22.7549L82.5489 22.6013V21.7522C82.5489 20.7676 81.9075 20.2256 80.6971 20.2256C79.6673 20.2256 78.9988 20.5959 78.773 21.2463L78.764 21.2825H76.6412L76.6502 21.2012C76.867 19.5391 78.4568 18.437 80.8055 18.437C83.3438 18.437 84.771 19.6655 84.771 21.7522V28.5H82.5489V27.145H82.3953C81.8533 28.1025 80.8055 28.6626 79.5047 28.6626ZM78.4839 25.6003C78.4839 26.4404 79.1976 26.9373 80.1912 26.9373C81.5462 26.9373 82.5489 26.052 82.5489 24.8777V24.0828L80.3267 24.2273C79.0711 24.3086 78.4839 24.7693 78.4839 25.5823V25.6003ZM87.3623 28.5V14.8057H89.6116V28.5H87.3623ZM96.9892 28.5V18.6267H99.2384V20.1624H99.392C99.8166 19.0603 100.81 18.437 102.102 18.437C103.439 18.437 104.414 19.1235 104.839 20.2166H104.993C105.471 19.1416 106.61 18.437 107.983 18.437C109.97 18.437 111.162 19.6565 111.162 21.707V28.5H108.913V22.2581C108.913 20.9753 108.326 20.325 107.124 20.325C105.95 20.325 105.191 21.2012 105.191 22.3303V28.5H102.942V22.0955C102.942 21.0024 102.265 20.325 101.162 20.325C100.051 20.325 99.2384 21.2644 99.2384 22.4929V28.5H96.9892ZM117.855 28.6987C114.919 28.6987 113.139 26.7295 113.139 23.5859V23.5769C113.139 20.4695 114.937 18.437 117.746 18.437C120.556 18.437 122.29 20.4062 122.29 23.3872V24.1279H115.389C115.416 25.8984 116.373 26.9282 117.9 26.9282C119.119 26.9282 119.815 26.314 120.032 25.8623L120.059 25.7991H122.2L122.172 25.8804C121.856 27.1541 120.537 28.6987 117.855 28.6987ZM117.773 20.1985C116.518 20.1985 115.578 21.0476 115.407 22.6194H120.095C119.941 21.0024 119.029 20.1985 117.773 20.1985ZM127.898 28.6626C125.423 28.6626 123.851 26.7024 123.851 23.5769V23.5588C123.851 20.4153 125.396 18.4641 127.898 18.4641C129.253 18.4641 130.382 19.1326 130.897 20.1985H131.051V14.8057H133.309V28.5H131.051V26.9553H130.897C130.355 28.0303 129.289 28.6626 127.898 28.6626ZM128.603 26.7656C130.138 26.7656 131.087 25.5552 131.087 23.5769V23.5588C131.087 21.5806 130.129 20.3611 128.603 20.3611C127.076 20.3611 126.137 21.5715 126.137 23.5588V23.5769C126.137 25.5642 127.067 26.7656 128.603 26.7656Z" fill="white"/>
<path fill-rule="evenodd" clip-rule="evenodd" d="M205 20.3784C204.28 17.6307 202.531 16.54 200.145 16.54C198.211 16.54 195.784 17.6307 195.784 20.2572C195.784 21.954 196.957 23.2876 198.869 23.6312L200.68 23.9542C201.914 24.1763 202.264 24.6411 202.264 25.2674C202.264 25.9745 201.503 26.3785 200.371 26.3785C198.89 26.3785 197.965 25.8532 197.82 24.3783L195.208 24.7825C195.619 27.6309 198.17 28.8029 200.474 28.8029C202.655 28.8029 204.979 27.5501 204.979 25.025C204.979 23.3075 203.93 22.0553 201.976 21.6912L199.981 21.3279C198.869 21.1259 198.499 20.5804 198.499 20.0552C198.499 19.3884 199.219 18.9645 200.207 18.9645C201.462 18.9645 202.346 19.3884 202.387 20.7824L205 20.3784ZM146.925 24.7013L149.64 16.8429H152.828L148.097 28.4994H145.731L141 16.8431H144.188L146.925 24.7013ZM163.608 20.1764C163.608 21.1056 162.868 21.752 162.004 21.752C161.14 21.752 160.399 21.1056 160.399 20.1764C160.399 19.247 161.14 18.6008 162.004 18.6008C162.868 18.6008 163.609 19.247 163.609 20.1764H163.608ZM164.102 24.2978C163.032 25.6711 161.901 26.6206 159.905 26.6207C157.869 26.6207 156.285 25.4086 155.051 23.631C154.557 22.9036 153.796 22.7421 153.24 23.1259C152.726 23.4896 152.603 24.2573 153.076 24.9241C154.783 27.4897 157.149 28.9844 159.905 28.9844C162.436 28.9844 164.411 27.7725 165.953 25.7522C166.529 25.0048 166.509 24.2372 165.953 23.8128C165.439 23.4084 164.678 23.5504 164.102 24.2978ZM171.2 22.6409C171.2 25.0249 172.599 26.2776 174.163 26.2776C175.643 26.2776 177.166 25.1057 177.166 22.6409C177.166 20.2165 175.643 19.045 174.183 19.045C172.599 19.045 171.2 20.1561 171.2 22.6409ZM171.2 18.4594V16.863H168.3V32.54H171.2V26.964C172.167 28.2571 173.422 28.8029 174.841 28.8029C177.495 28.8029 180.087 26.7421 180.087 22.4998C180.087 18.4388 177.392 16.5402 175.088 16.5402C173.257 16.5402 172.002 17.3683 171.2 18.4594ZM185.128 22.6409C185.128 25.0249 186.526 26.2776 188.09 26.2776C189.571 26.2776 191.093 25.1057 191.093 22.6409C191.093 20.2165 189.571 19.045 188.11 19.045C186.526 19.045 185.127 20.1561 185.127 22.6409H185.128ZM185.128 18.4594V16.863H185.127H182.227V32.54H185.127V26.964C186.094 28.2571 187.349 28.8029 188.768 28.8029C191.422 28.8029 194.014 26.7421 194.014 22.4998C194.014 18.4388 191.319 16.5402 189.015 16.5402C187.184 16.5402 185.93 17.3683 185.128 18.4594Z" fill="white"/>
</svg>
