<svg width="138" height="44" viewBox="0 0 138 44" fill="none" xmlns="http://www.w3.org/2000/svg">
<rect width="138" height="44" rx="5" fill="#FF5B24"/>
<path d="M24.5411 21.3242C25.1948 20.8726 26.0909 21.063 26.672 21.9189C28.1242 24.0105 29.9884 25.4363 32.3839 25.4365C34.7321 25.4365 36.0634 24.3192 37.3224 22.7031C37.9997 21.8239 38.8958 21.657 39.5011 22.1328C40.1545 22.6321 40.1787 23.5357 39.5011 24.415C37.6859 26.7923 35.3616 28.2188 32.3839 28.2188C29.1405 28.2187 26.3567 26.4593 24.3478 23.4404C23.7916 22.6559 23.9362 21.7522 24.5411 21.3242ZM34.8536 16C35.8704 16.0001 36.7423 16.7609 36.7423 17.8545C36.7421 18.9476 35.8703 19.7079 34.8536 19.708C33.8372 19.708 32.9662 18.9476 32.9659 17.8545C32.9659 16.7609 33.8371 16 34.8536 16Z" fill="white"/>
<path d="M47.5759 16.364H55.4754V18.547H50.0549V21.285H54.8279V23.468H50.0549V26.317H55.6419V28.5H47.5759V16.364ZM66.145 19.176L62.741 23.9675L66.145 28.5H63.4255L61.261 25.3735L59.189 28.5H56.451L59.892 23.801L56.451 19.176H59.189L61.372 22.395L63.4255 19.176H66.145ZM72.8488 18.917C74.7358 18.917 76.9373 20.434 76.9373 23.69C76.9373 27.094 74.8283 28.7405 72.6638 28.7405C71.4983 28.7405 70.5178 28.13 69.7593 26.8905V31.7375H67.3913V19.176H69.7593V20.8595C70.3513 19.8235 71.3318 18.917 72.8488 18.917ZM72.1273 20.9335C70.8878 20.9335 69.7593 21.8215 69.7593 23.801C69.7593 25.688 70.8878 26.7055 72.1088 26.7055C73.2928 26.7055 74.5138 25.7805 74.5138 23.801C74.5138 21.877 73.2928 20.9335 72.1273 20.9335ZM83.6012 21.4145C82.3432 21.4145 81.1592 22.099 81.1592 24.4855V28.5H78.7912V19.176H81.1592V21.4145C81.9177 19.398 83.3977 18.917 84.2857 18.917C84.5262 18.917 84.8037 18.954 85.0072 19.0465L84.8222 21.618C84.4707 21.4885 84.1007 21.4145 83.6012 21.4145ZM90.3433 20.9335C89.1223 20.9335 88.2898 21.581 88.0308 22.8945H92.6188C92.4523 21.507 91.5088 20.9335 90.3433 20.9335ZM94.8573 24.43H87.9938C88.1788 25.8545 88.9928 26.7425 90.4728 26.7425C91.8973 26.7425 92.4153 26.132 92.6558 25.2255L94.8018 25.54C94.4318 27.7415 92.3043 28.7405 90.5653 28.7405C87.7533 28.7405 85.5703 26.872 85.5703 23.801C85.5703 20.804 87.6423 18.917 90.3988 18.917C92.9888 18.917 94.8573 20.8965 94.8573 23.69V24.43ZM96.3814 21.8585C96.3814 19.7495 98.3609 18.917 99.9704 18.917C101.931 18.917 103.356 19.7865 103.911 21.7845L101.783 22.1545C101.728 21.1185 101.025 20.73 100.026 20.73C99.2119 20.73 98.6754 21.1 98.6754 21.692C98.6754 22.099 98.9529 22.5245 99.7484 22.691L101.691 23.098C103.3 23.4125 104.059 24.319 104.059 25.6695C104.059 27.6305 102.209 28.7405 100.248 28.7405C98.3239 28.7405 96.2519 27.871 95.9559 25.725L98.0649 25.355C98.1759 26.354 98.9714 26.9275 100.155 26.9275C101.154 26.9275 101.765 26.5575 101.765 25.873C101.765 25.392 101.487 25.0775 100.488 24.874L98.7124 24.504C97.1214 24.171 96.3814 23.1905 96.3814 21.8585ZM105.559 21.8585C105.559 19.7495 107.539 18.917 109.148 18.917C111.109 18.917 112.534 19.7865 113.089 21.7845L110.961 22.1545C110.906 21.1185 110.203 20.73 109.204 20.73C108.39 20.73 107.853 21.1 107.853 21.692C107.853 22.099 108.131 22.5245 108.926 22.691L110.869 23.098C112.478 23.4125 113.237 24.319 113.237 25.6695C113.237 27.6305 111.387 28.7405 109.426 28.7405C107.502 28.7405 105.43 27.871 105.134 25.725L107.243 25.355C107.354 26.354 108.149 26.9275 109.333 26.9275C110.332 26.9275 110.943 26.5575 110.943 25.873C110.943 25.392 110.665 25.0775 109.666 24.874L107.89 24.504C106.299 24.171 105.559 23.1905 105.559 21.8585Z" fill="white"/>
</svg>
