<svg width="300" height="44" viewBox="0 0 300 44" fill="none" xmlns="http://www.w3.org/2000/svg">
<rect width="300" height="44" rx="5" fill="#FF5B24"/>
<path d="M110.088 16.54C112.392 16.5401 115.087 18.4391 115.087 22.5C115.087 26.7422 112.495 28.8027 109.841 28.8027C108.422 28.8027 107.167 28.257 106.2 26.9639V32.54H103.3V16.8633H106.2V18.459C107.003 17.3681 108.257 16.54 110.088 16.54ZM124.016 16.54C126.32 16.5403 129.014 18.4393 129.014 22.5C129.014 26.7421 126.422 28.8026 123.769 28.8027C122.349 28.8027 121.094 28.257 120.127 26.9639V32.54H117.227V16.8633H120.128V18.459C120.93 17.3681 122.185 16.54 124.016 16.54ZM88.2402 23.126C88.7958 22.7422 89.5569 22.9035 90.0508 23.6309C91.285 25.4085 92.8693 26.6211 94.9053 26.6211C96.9006 26.621 98.0317 25.6711 99.1016 24.2979C99.6771 23.5506 100.439 23.4083 100.953 23.8125C101.508 24.2368 101.529 25.0047 100.953 25.752C99.4106 27.7722 97.4357 28.9843 94.9053 28.9844C92.1488 28.9844 89.7825 27.4895 88.0752 24.9238C87.6027 24.2571 87.7261 23.4896 88.2402 23.126ZM135.145 16.54C137.531 16.54 139.28 17.6312 140 20.3789L137.387 20.7822C137.346 19.3886 136.462 18.9649 135.207 18.9648C134.22 18.9648 133.499 19.3889 133.499 20.0557C133.499 20.5807 133.87 21.1262 134.98 21.3281L136.976 21.6914C138.93 22.0556 139.979 23.308 139.979 25.0254C139.979 27.5503 137.654 28.8027 135.474 28.8027C133.17 28.8027 130.619 27.6305 130.208 24.7822L132.82 24.3779C132.964 25.8528 133.89 26.3789 135.371 26.3789C136.502 26.3789 137.264 25.9746 137.264 25.2676C137.264 24.6413 136.914 24.1762 135.68 23.9541L133.869 23.6309C131.956 23.2872 130.784 21.9536 130.784 20.2568C130.784 17.6307 133.211 16.5401 135.145 16.54ZM81.9248 24.7012L84.6396 16.8428H87.8281L83.0967 28.499H80.7314L76 16.8428H79.1885L81.9248 24.7012ZM109.183 19.0449C107.599 19.045 106.2 20.1561 106.2 22.6406C106.2 25.0245 107.599 26.2772 109.162 26.2773C110.643 26.2773 112.166 25.1054 112.166 22.6406C112.166 20.2164 110.643 19.0449 109.183 19.0449ZM123.11 19.0449C121.526 19.0449 120.127 20.156 120.127 22.6406C120.127 25.0246 121.526 26.2773 123.09 26.2773C124.571 26.2773 126.093 25.1054 126.093 22.6406C126.093 20.2165 124.571 19.045 123.11 19.0449ZM97.0039 18.6006C97.868 18.6007 98.6084 19.2474 98.6084 20.1768C98.6082 21.1057 97.8679 21.7519 97.0039 21.752C96.1401 21.752 95.3996 21.1058 95.3994 20.1768C95.3994 19.2474 96.14 18.6006 97.0039 18.6006Z" fill="white"/>
<path d="M147.824 16.364H155.724V18.547H150.303V21.285H155.076V23.468H150.303V26.317H155.89V28.5H147.824V16.364ZM157.902 28.5V15.957H160.27V23.6715L164.062 19.176H166.671L163.23 22.987L167.004 28.5H164.395L161.805 24.578L160.27 26.2615V28.5H157.902ZM167.687 21.8585C167.687 19.7495 169.667 18.917 171.276 18.917C173.237 18.917 174.662 19.7865 175.217 21.7845L173.089 22.1545C173.034 21.1185 172.331 20.73 171.332 20.73C170.518 20.73 169.981 21.1 169.981 21.692C169.981 22.099 170.259 22.5245 171.054 22.691L172.997 23.098C174.606 23.4125 175.365 24.319 175.365 25.6695C175.365 27.6305 173.515 28.7405 171.554 28.7405C169.63 28.7405 167.558 27.871 167.262 25.725L169.371 25.355C169.482 26.354 170.277 26.9275 171.461 26.9275C172.46 26.9275 173.071 26.5575 173.071 25.873C173.071 25.392 172.793 25.0775 171.794 24.874L170.018 24.504C168.427 24.171 167.687 23.1905 167.687 21.8585ZM182.6 18.917C184.487 18.917 186.689 20.434 186.689 23.69C186.689 27.094 184.58 28.7405 182.415 28.7405C181.25 28.7405 180.269 28.13 179.511 26.8905V31.7375H177.143V19.176H179.511V20.8595C180.103 19.8235 181.083 18.917 182.6 18.917ZM181.879 20.9335C180.639 20.9335 179.511 21.8215 179.511 23.801C179.511 25.688 180.639 26.7055 181.86 26.7055C183.044 26.7055 184.265 25.7805 184.265 23.801C184.265 21.877 183.044 20.9335 181.879 20.9335ZM193.353 21.4145C192.095 21.4145 190.911 22.099 190.911 24.4855V28.5H188.543V19.176H190.911V21.4145C191.669 19.398 193.149 18.917 194.037 18.917C194.278 18.917 194.555 18.954 194.759 19.0465L194.574 21.618C194.222 21.4885 193.852 21.4145 193.353 21.4145ZM200.095 20.9335C198.874 20.9335 198.041 21.581 197.782 22.8945H202.37C202.204 21.507 201.26 20.9335 200.095 20.9335ZM204.609 24.43H197.745C197.93 25.8545 198.744 26.7425 200.224 26.7425C201.649 26.7425 202.167 26.132 202.407 25.2255L204.553 25.54C204.183 27.7415 202.056 28.7405 200.317 28.7405C197.505 28.7405 195.322 26.872 195.322 23.801C195.322 20.804 197.394 18.917 200.15 18.917C202.74 18.917 204.609 20.8965 204.609 23.69V24.43ZM206.133 21.8585C206.133 19.7495 208.112 18.917 209.722 18.917C211.683 18.917 213.107 19.7865 213.662 21.7845L211.535 22.1545C211.479 21.1185 210.776 20.73 209.777 20.73C208.963 20.73 208.427 21.1 208.427 21.692C208.427 22.099 208.704 22.5245 209.5 22.691L211.442 23.098C213.052 23.4125 213.81 24.319 213.81 25.6695C213.81 27.6305 211.96 28.7405 209.999 28.7405C208.075 28.7405 206.003 27.871 205.707 25.725L207.816 25.355C207.927 26.354 208.723 26.9275 209.907 26.9275C210.906 26.9275 211.516 26.5575 211.516 25.873C211.516 25.392 211.239 25.0775 210.24 24.874L208.464 24.504C206.873 24.171 206.133 23.1905 206.133 21.8585ZM215.31 21.8585C215.31 19.7495 217.29 18.917 218.899 18.917C220.86 18.917 222.285 19.7865 222.84 21.7845L220.712 22.1545C220.657 21.1185 219.954 20.73 218.955 20.73C218.141 20.73 217.604 21.1 217.604 21.692C217.604 22.099 217.882 22.5245 218.677 22.691L220.62 23.098C222.229 23.4125 222.988 24.319 222.988 25.6695C222.988 27.6305 221.138 28.7405 219.177 28.7405C217.253 28.7405 215.181 27.871 214.885 25.725L216.994 25.355C217.105 26.354 217.9 26.9275 219.084 26.9275C220.083 26.9275 220.694 26.5575 220.694 25.873C220.694 25.392 220.416 25.0775 219.417 24.874L217.641 24.504C216.05 24.171 215.31 23.1905 215.31 21.8585Z" fill="white"/>
</svg>
