<svg width="138" height="44" viewBox="0 0 138 44" fill="none" xmlns="http://www.w3.org/2000/svg">
<rect width="138" height="44" rx="22" fill="#FF5B24"/>
<path d="M19.5413 21.3242C20.1949 20.8726 21.091 21.063 21.6721 21.9189C23.1243 24.0105 24.9885 25.4363 27.384 25.4365C29.7322 25.4365 31.0635 24.3192 32.3225 22.7031C32.9999 21.8239 33.8959 21.657 34.5012 22.1328C35.1546 22.6321 35.1788 23.5357 34.5012 24.415C32.6861 26.7923 30.3617 28.2188 27.384 28.2188C24.1406 28.2187 21.3568 26.4593 19.3479 23.4404C18.7917 22.6559 18.9363 21.7522 19.5413 21.3242ZM29.8538 16C30.8705 16.0001 31.7424 16.7609 31.7424 17.8545C31.7422 18.9476 30.8704 19.7079 29.8538 19.708C28.8373 19.708 27.9663 18.9476 27.9661 17.8545C27.9661 16.7609 28.8372 16 29.8538 16Z" fill="white"/>
<path d="M42.8246 16.364H50.7241V18.547H45.3036V21.285H50.0766V23.468H45.3036V26.317H50.8906V28.5H42.8246V16.364ZM52.9022 28.5V15.957H55.2702V23.6715L59.0627 19.176H61.6712L58.2302 22.987L62.0042 28.5H59.3957L56.8057 24.578L55.2702 26.2615V28.5H52.9022ZM62.6876 21.8585C62.6876 19.7495 64.6671 18.917 66.2766 18.917C68.2376 18.917 69.6621 19.7865 70.2171 21.7845L68.0896 22.1545C68.0341 21.1185 67.3311 20.73 66.3321 20.73C65.5181 20.73 64.9816 21.1 64.9816 21.692C64.9816 22.099 65.2591 22.5245 66.0546 22.691L67.9971 23.098C69.6066 23.4125 70.3651 24.319 70.3651 25.6695C70.3651 27.6305 68.5151 28.7405 66.5541 28.7405C64.6301 28.7405 62.5581 27.871 62.2621 25.725L64.3711 25.355C64.4821 26.354 65.2776 26.9275 66.4616 26.9275C67.4606 26.9275 68.0711 26.5575 68.0711 25.873C68.0711 25.392 67.7936 25.0775 66.7946 24.874L65.0186 24.504C63.4276 24.171 62.6876 23.1905 62.6876 21.8585ZM77.6004 18.917C79.4874 18.917 81.6889 20.434 81.6889 23.69C81.6889 27.094 79.5799 28.7405 77.4154 28.7405C76.2499 28.7405 75.2694 28.13 74.5109 26.8905V31.7375H72.1429V19.176H74.5109V20.8595C75.1029 19.8235 76.0834 18.917 77.6004 18.917ZM76.8789 20.9335C75.6394 20.9335 74.5109 21.8215 74.5109 23.801C74.5109 25.688 75.6394 26.7055 76.8604 26.7055C78.0444 26.7055 79.2654 25.7805 79.2654 23.801C79.2654 21.877 78.0444 20.9335 76.8789 20.9335ZM88.3528 21.4145C87.0948 21.4145 85.9108 22.099 85.9108 24.4855V28.5H83.5428V19.176H85.9108V21.4145C86.6693 19.398 88.1493 18.917 89.0373 18.917C89.2778 18.917 89.5553 18.954 89.7588 19.0465L89.5738 21.618C89.2223 21.4885 88.8523 21.4145 88.3528 21.4145ZM95.0949 20.9335C93.8739 20.9335 93.0414 21.581 92.7824 22.8945H97.3704C97.2039 21.507 96.2604 20.9335 95.0949 20.9335ZM99.6089 24.43H92.7454C92.9304 25.8545 93.7444 26.7425 95.2244 26.7425C96.6489 26.7425 97.1669 26.132 97.4074 25.2255L99.5534 25.54C99.1834 27.7415 97.0559 28.7405 95.3169 28.7405C92.5049 28.7405 90.3219 26.872 90.3219 23.801C90.3219 20.804 92.3939 18.917 95.1504 18.917C97.7404 18.917 99.6089 20.8965 99.6089 23.69V24.43ZM101.133 21.8585C101.133 19.7495 103.112 18.917 104.722 18.917C106.683 18.917 108.107 19.7865 108.662 21.7845L106.535 22.1545C106.479 21.1185 105.776 20.73 104.777 20.73C103.963 20.73 103.427 21.1 103.427 21.692C103.427 22.099 103.704 22.5245 104.5 22.691L106.442 23.098C108.052 23.4125 108.81 24.319 108.81 25.6695C108.81 27.6305 106.96 28.7405 104.999 28.7405C103.075 28.7405 101.003 27.871 100.707 25.725L102.816 25.355C102.927 26.354 103.723 26.9275 104.907 26.9275C105.906 26.9275 106.516 26.5575 106.516 25.873C106.516 25.392 106.239 25.0775 105.24 24.874L103.464 24.504C101.873 24.171 101.133 23.1905 101.133 21.8585ZM110.311 21.8585C110.311 19.7495 112.29 18.917 113.9 18.917C115.861 18.917 117.285 19.7865 117.84 21.7845L115.713 22.1545C115.657 21.1185 114.954 20.73 113.955 20.73C113.141 20.73 112.605 21.1 112.605 21.692C112.605 22.099 112.882 22.5245 113.678 22.691L115.62 23.098C117.23 23.4125 117.988 24.319 117.988 25.6695C117.988 27.6305 116.138 28.7405 114.177 28.7405C112.253 28.7405 110.181 27.871 109.885 25.725L111.994 25.355C112.105 26.354 112.901 26.9275 114.085 26.9275C115.084 26.9275 115.694 26.5575 115.694 25.873C115.694 25.392 115.417 25.0775 114.418 24.874L112.642 24.504C111.051 24.171 110.311 23.1905 110.311 21.8585Z" fill="white"/>
</svg>
