<svg width="138" height="44" viewBox="0 0 138 44" fill="none" xmlns="http://www.w3.org/2000/svg">
<rect width="138" height="44" rx="5" fill="#FF5B24"/>
<path fill-rule="evenodd" clip-rule="evenodd" d="M34.8536 19.7081C35.8705 19.7081 36.7419 18.9474 36.7419 17.854H36.7421C36.7421 16.7604 35.8705 16 34.8536 16C33.837 16 32.9659 16.7604 32.9659 17.854C32.9659 18.9474 33.837 19.7081 34.8536 19.7081ZM37.3228 22.7036C36.0638 24.3196 34.7325 25.4369 32.3845 25.437C29.9888 25.437 28.1244 24.0107 26.6721 21.919C26.091 21.063 25.1954 20.873 24.5417 21.3247C23.9367 21.7526 23.7918 22.656 24.3482 23.4406C26.3571 26.4595 29.1407 28.2183 32.3843 28.2183C35.3619 28.2183 37.6859 26.7922 39.5011 24.415C40.1787 23.5356 40.1545 22.6323 39.5011 22.133C38.8957 21.6571 38.0001 21.8242 37.3228 22.7036Z" fill="white"/>
<path d="M47.576 16.364H55.4755V18.547H50.055V21.285H54.828V23.468H50.055V26.317H55.642V28.5H47.576V16.364ZM66.1451 19.176L62.7411 23.9675L66.1451 28.5H63.4256L61.2611 25.3735L59.1891 28.5H56.4511L59.8921 23.801L56.4511 19.176H59.1891L61.3721 22.395L63.4256 19.176H66.1451ZM72.8489 18.917C74.7359 18.917 76.9374 20.434 76.9374 23.69C76.9374 27.094 74.8284 28.7405 72.6639 28.7405C71.4984 28.7405 70.5179 28.13 69.7594 26.8905V31.7375H67.3914V19.176H69.7594V20.8595C70.3514 19.8235 71.3319 18.917 72.8489 18.917ZM72.1274 20.9335C70.8879 20.9335 69.7594 21.8215 69.7594 23.801C69.7594 25.688 70.8879 26.7055 72.1089 26.7055C73.2929 26.7055 74.5139 25.7805 74.5139 23.801C74.5139 21.877 73.2929 20.9335 72.1274 20.9335ZM83.6013 21.4145C82.3433 21.4145 81.1593 22.099 81.1593 24.4855V28.5H78.7913V19.176H81.1593V21.4145C81.9178 19.398 83.3978 18.917 84.2858 18.917C84.5263 18.917 84.8038 18.954 85.0073 19.0465L84.8223 21.618C84.4708 21.4885 84.1008 21.4145 83.6013 21.4145ZM90.3434 20.9335C89.1224 20.9335 88.2899 21.581 88.0309 22.8945H92.6189C92.4524 21.507 91.5089 20.9335 90.3434 20.9335ZM94.8574 24.43H87.9939C88.1789 25.8545 88.9929 26.7425 90.4729 26.7425C91.8974 26.7425 92.4154 26.132 92.6559 25.2255L94.8019 25.54C94.4319 27.7415 92.3044 28.7405 90.5654 28.7405C87.7534 28.7405 85.5704 26.872 85.5704 23.801C85.5704 20.804 87.6424 18.917 90.3989 18.917C92.9889 18.917 94.8574 20.8965 94.8574 23.69V24.43ZM96.3815 21.8585C96.3815 19.7495 98.361 18.917 99.9705 18.917C101.931 18.917 103.356 19.7865 103.911 21.7845L101.783 22.1545C101.728 21.1185 101.025 20.73 100.026 20.73C99.212 20.73 98.6755 21.1 98.6755 21.692C98.6755 22.099 98.953 22.5245 99.7485 22.691L101.691 23.098C103.3 23.4125 104.059 24.319 104.059 25.6695C104.059 27.6305 102.209 28.7405 100.248 28.7405C98.324 28.7405 96.252 27.871 95.956 25.725L98.065 25.355C98.176 26.354 98.9715 26.9275 100.155 26.9275C101.154 26.9275 101.765 26.5575 101.765 25.873C101.765 25.392 101.487 25.0775 100.488 24.874L98.7125 24.504C97.1215 24.171 96.3815 23.1905 96.3815 21.8585ZM105.559 21.8585C105.559 19.7495 107.539 18.917 109.148 18.917C111.109 18.917 112.534 19.7865 113.089 21.7845L110.961 22.1545C110.906 21.1185 110.203 20.73 109.204 20.73C108.39 20.73 107.853 21.1 107.853 21.692C107.853 22.099 108.131 22.5245 108.926 22.691L110.869 23.098C112.478 23.4125 113.237 24.319 113.237 25.6695C113.237 27.6305 111.387 28.7405 109.426 28.7405C107.502 28.7405 105.43 27.871 105.134 25.725L107.243 25.355C107.354 26.354 108.149 26.9275 109.333 26.9275C110.332 26.9275 110.943 26.5575 110.943 25.873C110.943 25.392 110.665 25.0775 109.666 24.874L107.89 24.504C106.299 24.171 105.559 23.1905 105.559 21.8585Z" fill="white"/>
</svg>
