<svg width="300" height="44" viewBox="0 0 300 44" fill="none" xmlns="http://www.w3.org/2000/svg">
<rect width="300" height="44" rx="5" fill="#FF5B24"/>
<path d="M115.088 16.54C117.392 16.5401 120.087 18.4391 120.087 22.5C120.087 26.7422 117.495 28.8027 114.841 28.8027C113.422 28.8027 112.167 28.257 111.2 26.9639V32.54H108.3V16.8633H111.2V18.459C112.003 17.3681 113.257 16.54 115.088 16.54ZM129.016 16.54C131.32 16.5403 134.014 18.4393 134.014 22.5C134.014 26.7421 131.422 28.8026 128.769 28.8027C127.349 28.8027 126.094 28.257 125.127 26.9639V32.54H122.227V16.8633H125.128V18.459C125.93 17.3681 127.185 16.54 129.016 16.54ZM93.2402 23.126C93.7958 22.7422 94.5569 22.9035 95.0508 23.6309C96.285 25.4085 97.8693 26.6211 99.9053 26.6211C101.901 26.621 103.032 25.6711 104.102 24.2979C104.677 23.5506 105.439 23.4083 105.953 23.8125C106.508 24.2368 106.529 25.0047 105.953 25.752C104.411 27.7722 102.436 28.9843 99.9053 28.9844C97.1488 28.9844 94.7825 27.4895 93.0752 24.9238C92.6027 24.2571 92.7261 23.4896 93.2402 23.126ZM140.145 16.54C142.531 16.54 144.28 17.6312 145 20.3789L142.387 20.7822C142.346 19.3886 141.462 18.9649 140.207 18.9648C139.22 18.9648 138.499 19.3889 138.499 20.0557C138.499 20.5807 138.87 21.1262 139.98 21.3281L141.976 21.6914C143.93 22.0556 144.979 23.308 144.979 25.0254C144.979 27.5503 142.654 28.8027 140.474 28.8027C138.17 28.8027 135.619 27.6305 135.208 24.7822L137.82 24.3779C137.964 25.8528 138.89 26.3789 140.371 26.3789C141.502 26.3789 142.264 25.9746 142.264 25.2676C142.264 24.6413 141.914 24.1762 140.68 23.9541L138.869 23.6309C136.956 23.2872 135.784 21.9536 135.784 20.2568C135.784 17.6307 138.211 16.5401 140.145 16.54ZM86.9248 24.7012L89.6396 16.8428H92.8281L88.0967 28.499H85.7314L81 16.8428H84.1885L86.9248 24.7012ZM114.183 19.0449C112.599 19.045 111.2 20.1561 111.2 22.6406C111.2 25.0245 112.599 26.2772 114.162 26.2773C115.643 26.2773 117.166 25.1054 117.166 22.6406C117.166 20.2164 115.643 19.0449 114.183 19.0449ZM128.11 19.0449C126.526 19.0449 125.127 20.156 125.127 22.6406C125.127 25.0246 126.526 26.2773 128.09 26.2773C129.571 26.2773 131.093 25.1054 131.093 22.6406C131.093 20.2165 129.571 19.045 128.11 19.0449ZM102.004 18.6006C102.868 18.6007 103.608 19.2474 103.608 20.1768C103.608 21.1057 102.868 21.7519 102.004 21.752C101.14 21.752 100.4 21.1058 100.399 20.1768C100.399 19.2474 101.14 18.6006 102.004 18.6006Z" fill="white"/>
<path d="M152.576 16.364H160.475V18.547H155.055V21.285H159.828V23.468H155.055V26.317H160.642V28.5H152.576V16.364ZM171.145 19.176L167.741 23.9675L171.145 28.5H168.425L166.261 25.3735L164.189 28.5H161.451L164.892 23.801L161.451 19.176H164.189L166.372 22.395L168.425 19.176H171.145ZM177.849 18.917C179.736 18.917 181.937 20.434 181.937 23.69C181.937 27.094 179.828 28.7405 177.664 28.7405C176.498 28.7405 175.518 28.13 174.759 26.8905V31.7375H172.391V19.176H174.759V20.8595C175.351 19.8235 176.332 18.917 177.849 18.917ZM177.127 20.9335C175.888 20.9335 174.759 21.8215 174.759 23.801C174.759 25.688 175.888 26.7055 177.109 26.7055C178.293 26.7055 179.514 25.7805 179.514 23.801C179.514 21.877 178.293 20.9335 177.127 20.9335ZM188.601 21.4145C187.343 21.4145 186.159 22.099 186.159 24.4855V28.5H183.791V19.176H186.159V21.4145C186.918 19.398 188.398 18.917 189.286 18.917C189.526 18.917 189.804 18.954 190.007 19.0465L189.822 21.618C189.471 21.4885 189.101 21.4145 188.601 21.4145ZM195.343 20.9335C194.122 20.9335 193.29 21.581 193.031 22.8945H197.619C197.452 21.507 196.509 20.9335 195.343 20.9335ZM199.857 24.43H192.994C193.179 25.8545 193.993 26.7425 195.473 26.7425C196.897 26.7425 197.415 26.132 197.656 25.2255L199.802 25.54C199.432 27.7415 197.304 28.7405 195.565 28.7405C192.753 28.7405 190.57 26.872 190.57 23.801C190.57 20.804 192.642 18.917 195.399 18.917C197.989 18.917 199.857 20.8965 199.857 23.69V24.43ZM201.381 21.8585C201.381 19.7495 203.361 18.917 204.97 18.917C206.931 18.917 208.356 19.7865 208.911 21.7845L206.783 22.1545C206.728 21.1185 206.025 20.73 205.026 20.73C204.212 20.73 203.675 21.1 203.675 21.692C203.675 22.099 203.953 22.5245 204.748 22.691L206.691 23.098C208.3 23.4125 209.059 24.319 209.059 25.6695C209.059 27.6305 207.209 28.7405 205.248 28.7405C203.324 28.7405 201.252 27.871 200.956 25.725L203.065 25.355C203.176 26.354 203.971 26.9275 205.155 26.9275C206.154 26.9275 206.765 26.5575 206.765 25.873C206.765 25.392 206.487 25.0775 205.488 24.874L203.712 24.504C202.121 24.171 201.381 23.1905 201.381 21.8585ZM210.559 21.8585C210.559 19.7495 212.538 18.917 214.148 18.917C216.109 18.917 217.533 19.7865 218.088 21.7845L215.961 22.1545C215.905 21.1185 215.202 20.73 214.203 20.73C213.389 20.73 212.853 21.1 212.853 21.692C212.853 22.099 213.13 22.5245 213.926 22.691L215.868 23.098C217.478 23.4125 218.236 24.319 218.236 25.6695C218.236 27.6305 216.386 28.7405 214.425 28.7405C212.501 28.7405 210.429 27.871 210.133 25.725L212.242 25.355C212.353 26.354 213.149 26.9275 214.333 26.9275C215.332 26.9275 215.942 26.5575 215.942 25.873C215.942 25.392 215.665 25.0775 214.666 24.874L212.89 24.504C211.299 24.171 210.559 23.1905 210.559 21.8585Z" fill="white"/>
</svg>
