<svg width="138" height="44" viewBox="0 0 138 44" fill="none" xmlns="http://www.w3.org/2000/svg">
<rect width="138" height="44" rx="22" fill="#5A78FF"/>
<path fill-rule="evenodd" clip-rule="evenodd" d="M31.7649 24.5347C31.7649 24.5347 33.72 23.9389 35.0729 23.9355C37.3098 23.93 38.8237 24.8236 38.8237 24.8236V20.4915C38.8237 20.4915 37.3021 19.7036 35.3851 19.6503C33.4682 19.597 31.7649 20.4311 31.7649 20.4311L31.7649 24.5347Z" fill="white"/>
<path fill-rule="evenodd" clip-rule="evenodd" d="M29.6473 19.818L31.2559 23.6471V19.9775C31.2559 19.9775 32.5272 19.2967 33.9476 19.1049C35.3681 18.9131 37.1767 19.1667 37.1767 19.1667L36.3018 17.0764C36.3018 17.0764 34.4006 16.9536 32.6796 17.689C30.9585 18.4244 29.6473 19.818 29.6473 19.818Z" fill="white"/>
<path d="M32.8294 17.1046C32.6182 16.5923 32.1959 15.5675 32.1959 15.5675C31.8995 14.8485 31.08 14.5044 30.3654 14.799L25.9919 16.6016C25.2773 16.8961 24.9382 17.7177 25.2346 18.4367L29.4516 28.6679C29.7479 29.3869 30.5675 29.731 31.2821 29.4364L35.6555 27.6338C36.3701 27.3393 36.7092 26.5177 36.4129 25.7987C36.4129 25.7987 36.0123 24.8268 35.8901 24.5303C35.8901 24.5303 35.5331 24.5092 35.3677 24.5049C35.1931 24.5004 34.87 24.5038 34.87 24.5038C35.0275 24.8859 35.5503 26.1542 35.5503 26.1542C35.649 26.3939 35.536 26.6678 35.2978 26.766L30.9243 28.5686C30.6861 28.6667 30.413 28.552 30.3142 28.3124L26.0972 18.0812C25.9984 17.8415 26.1114 17.5676 26.3496 17.4695L30.7231 15.6669C30.9613 15.5687 31.2345 15.6834 31.3333 15.923L31.9736 17.4767C31.9736 17.4767 32.27 17.3321 32.4293 17.2683C32.5886 17.2045 32.8294 17.1046 32.8294 17.1046Z" fill="white"/>
<path d="M47.576 16.364H55.4755V18.547H50.055V21.285H54.828V23.468H50.055V26.317H55.642V28.5H47.576V16.364ZM66.1451 19.176L62.7411 23.9675L66.1451 28.5H63.4256L61.2611 25.3735L59.1891 28.5H56.4511L59.8921 23.801L56.4511 19.176H59.1891L61.3721 22.395L63.4256 19.176H66.1451ZM72.8488 18.917C74.7358 18.917 76.9373 20.434 76.9373 23.69C76.9373 27.094 74.8283 28.7405 72.6638 28.7405C71.4983 28.7405 70.5178 28.13 69.7593 26.8905V31.7375H67.3913V19.176H69.7593V20.8595C70.3513 19.8235 71.3318 18.917 72.8488 18.917ZM72.1273 20.9335C70.8878 20.9335 69.7593 21.8215 69.7593 23.801C69.7593 25.688 70.8878 26.7055 72.1088 26.7055C73.2928 26.7055 74.5138 25.7805 74.5138 23.801C74.5138 21.877 73.2928 20.9335 72.1273 20.9335ZM83.6013 21.4145C82.3433 21.4145 81.1593 22.099 81.1593 24.4855V28.5H78.7913V19.176H81.1593V21.4145C81.9178 19.398 83.3978 18.917 84.2858 18.917C84.5263 18.917 84.8038 18.954 85.0073 19.0465L84.8223 21.618C84.4708 21.4885 84.1008 21.4145 83.6013 21.4145ZM90.3433 20.9335C89.1223 20.9335 88.2898 21.581 88.0308 22.8945H92.6188C92.4523 21.507 91.5088 20.9335 90.3433 20.9335ZM94.8573 24.43H87.9938C88.1788 25.8545 88.9928 26.7425 90.4728 26.7425C91.8973 26.7425 92.4153 26.132 92.6558 25.2255L94.8018 25.54C94.4318 27.7415 92.3043 28.7405 90.5653 28.7405C87.7533 28.7405 85.5703 26.872 85.5703 23.801C85.5703 20.804 87.6423 18.917 90.3988 18.917C92.9888 18.917 94.8573 20.8965 94.8573 23.69V24.43ZM96.3814 21.8585C96.3814 19.7495 98.3609 18.917 99.9704 18.917C101.931 18.917 103.356 19.7865 103.911 21.7845L101.783 22.1545C101.728 21.1185 101.025 20.73 100.026 20.73C99.2119 20.73 98.6754 21.1 98.6754 21.692C98.6754 22.099 98.9529 22.5245 99.7484 22.691L101.691 23.098C103.3 23.4125 104.059 24.319 104.059 25.6695C104.059 27.6305 102.209 28.7405 100.248 28.7405C98.3239 28.7405 96.2519 27.871 95.9559 25.725L98.0649 25.355C98.1759 26.354 98.9714 26.9275 100.155 26.9275C101.154 26.9275 101.765 26.5575 101.765 25.873C101.765 25.392 101.487 25.0775 100.488 24.874L98.7124 24.504C97.1214 24.171 96.3814 23.1905 96.3814 21.8585ZM105.559 21.8585C105.559 19.7495 107.539 18.917 109.148 18.917C111.109 18.917 112.534 19.7865 113.089 21.7845L110.961 22.1545C110.906 21.1185 110.203 20.73 109.204 20.73C108.39 20.73 107.853 21.1 107.853 21.692C107.853 22.099 108.131 22.5245 108.926 22.691L110.869 23.098C112.478 23.4125 113.237 24.319 113.237 25.6695C113.237 27.6305 111.387 28.7405 109.426 28.7405C107.502 28.7405 105.43 27.871 105.134 25.725L107.243 25.355C107.354 26.354 108.149 26.9275 109.333 26.9275C110.332 26.9275 110.943 26.5575 110.943 25.873C110.943 25.392 110.665 25.0775 109.666 24.874L107.89 24.504C106.299 24.171 105.559 23.1905 105.559 21.8585Z" fill="white"/>
</svg>
