<svg width="300" height="44" viewBox="0 0 300 44" fill="none" xmlns="http://www.w3.org/2000/svg">
<rect width="300" height="44" rx="5" fill="#5A78FF"/>
<path fill-rule="evenodd" clip-rule="evenodd" d="M66.3123 28.4595H68.388C68.5519 28.4595 68.6793 28.3867 68.734 28.2046L71.1374 20.6119C71.1738 20.4662 71.3195 20.4662 71.3741 20.6119L74.2328 28.15C74.3056 28.3502 74.4148 28.4595 74.6151 28.4595H75.9079C76.09 28.4595 76.2356 28.3685 76.3085 28.15L79.0761 20.6119C79.1307 20.4662 79.2946 20.4662 79.331 20.6119L81.6798 28.2046C81.7162 28.3502 81.8255 28.4595 82.0076 28.4595H84.2107C84.4292 28.4595 84.5567 28.2956 84.4838 28.0589L80.8605 16.3694C80.8058 16.2055 80.6784 16.0781 80.5145 16.0781H78.6573C78.4934 16.0781 78.3478 16.2237 78.2931 16.3694L75.4345 23.7436C75.3799 23.9075 75.2342 23.8893 75.1796 23.7436L72.3027 16.3694C72.2481 16.2237 72.1024 16.0781 71.9386 16.0781H70.0813C69.9175 16.0781 69.79 16.2055 69.7354 16.3694L66.0392 28.0589C65.9663 28.3138 66.0938 28.4595 66.3123 28.4595ZM89.9644 28.6962C87.1604 28.6962 85.0847 26.5841 85.0847 23.8893C85.0847 21.1763 87.1604 19.0824 89.9644 19.0824C92.7867 19.0824 94.8442 21.1763 94.8442 23.8893C94.8442 26.5841 92.7867 28.6962 89.9644 28.6962ZM89.9644 26.4384C91.2936 26.4384 92.3679 25.2913 92.3679 23.8893C92.3679 22.4691 91.2936 21.3402 89.9644 21.3402C88.6535 21.3402 87.561 22.4691 87.561 23.8893C87.561 25.2913 88.6535 26.4384 89.9644 26.4384ZM101.69 28.6962C100.616 28.6962 99.8878 28.2592 99.2141 27.713C99.032 27.5673 98.8681 27.6219 98.8681 27.8768V28.1135C98.8681 28.2956 98.7225 28.4595 98.5404 28.4595H96.8288C96.6468 28.4595 96.4829 28.2956 96.4829 28.1135V16.424C96.4829 16.242 96.6468 16.0781 96.8288 16.0781H98.6314C98.8135 16.0781 98.9592 16.242 98.9592 16.424V19.7561C98.9592 19.9928 99.123 20.0656 99.378 19.8835C99.9242 19.483 100.725 19.0824 101.763 19.0824C104.258 19.0824 106.17 21.1945 106.17 23.8893C106.17 26.5841 104.221 28.6962 101.69 28.6962ZM101.272 26.4202C102.619 26.4202 103.693 25.2913 103.693 23.8893C103.693 22.4691 102.619 21.3402 101.272 21.3402C99.9606 21.3402 98.8863 22.4509 98.8863 23.8893C98.8863 25.3095 99.9424 26.4202 101.272 26.4202ZM109.065 18.3177C109.811 18.3177 110.448 17.6804 110.448 16.9339C110.448 16.1873 109.811 15.55 109.065 15.55C108.318 15.55 107.681 16.1873 107.681 16.9339C107.681 17.6804 108.318 18.3177 109.065 18.3177ZM108.136 28.4595H109.939C110.121 28.4595 110.285 28.2956 110.285 28.1135V19.665C110.285 19.483 110.121 19.3191 109.939 19.3191H108.136C107.954 19.3191 107.808 19.483 107.808 19.665V28.1135C107.808 28.2956 107.954 28.4595 108.136 28.4595ZM115.656 28.5505C115.838 28.5505 116.002 28.4049 116.002 28.2228V26.7297C116.002 26.5295 115.838 26.3838 115.656 26.3838C115.019 26.3838 114.764 26.0014 114.764 25.4188V16.424C114.764 16.242 114.6 16.0781 114.418 16.0781H112.615C112.433 16.0781 112.287 16.242 112.287 16.424V25.3641C112.287 27.7676 113.252 28.5505 115.656 28.5505ZM121.482 28.6962C118.715 28.6962 116.748 26.6751 116.748 23.9257C116.748 21.1581 118.788 19.0824 121.519 19.0824C124.232 19.0824 126.216 21.1945 126.216 23.9621C126.216 24.2899 126.125 24.563 125.798 24.563H119.534C119.37 24.563 119.316 24.654 119.334 24.7997C119.461 25.8375 120.372 26.6023 121.555 26.6023C122.338 26.6023 122.903 26.2563 123.285 25.8193C123.485 25.6008 123.649 25.528 123.868 25.528H125.543C125.834 25.528 125.962 25.7283 125.852 26.0196C125.251 27.5673 123.54 28.6962 121.482 28.6962ZM119.552 23.0881H123.394C123.522 23.0881 123.576 23.0335 123.558 22.8879C123.376 21.9228 122.52 21.1763 121.482 21.1763C120.481 21.1763 119.643 21.8864 119.407 22.8332C119.37 22.9607 119.389 23.0881 119.552 23.0881ZM128.347 28.4595C128.165 28.4595 128.019 28.2956 128.019 28.1135V16.424C128.019 16.242 128.165 16.0781 128.347 16.0781H134.082C136.704 16.0781 138.489 17.6075 138.489 20.1749C138.489 22.6876 136.468 24.3263 133.955 24.3263H130.914C130.696 24.3263 130.586 24.4537 130.586 24.6722V28.1135C130.586 28.2956 130.423 28.4595 130.24 28.4595H128.347ZM130.896 22.2142H133.955C135.211 22.2142 135.903 21.1399 135.903 20.1931C135.903 19.1916 135.229 18.2448 133.955 18.2448H130.896C130.677 18.2448 130.586 18.3541 130.586 18.5726V21.8864C130.586 22.1049 130.677 22.2142 130.896 22.2142ZM144.024 28.6962C141.584 28.6962 139.545 26.6387 139.545 23.8893C139.545 21.1217 141.62 19.0824 144.06 19.0824C145.098 19.0824 145.826 19.483 146.482 20.011C146.646 20.1567 146.828 20.1385 146.828 19.92V19.6468C146.828 19.4648 146.974 19.3191 147.156 19.3191H148.867C149.049 19.3191 149.213 19.483 149.213 19.665V25.6919C149.213 26.1471 149.377 26.3474 149.687 26.3656C149.85 26.3838 149.996 26.493 149.996 26.6569V28.241C149.996 28.4049 149.869 28.5505 149.687 28.5505C148.485 28.5505 147.775 28.2046 147.374 27.5127C147.265 27.3306 147.137 27.2942 146.955 27.4763C146.227 28.15 145.389 28.6962 144.024 28.6962ZM144.443 26.4384C145.772 26.4384 146.828 25.3095 146.828 23.8893C146.828 22.4509 145.772 21.3402 144.443 21.3402C143.095 21.3402 142.039 22.4691 142.039 23.8893C142.039 25.2913 143.095 26.4384 144.443 26.4384ZM151.271 32.01C153.929 32.01 155.258 30.8994 156.515 27.9315L159.956 19.7561C160.047 19.5376 159.883 19.3191 159.646 19.3191H157.917C157.734 19.3191 157.643 19.4283 157.571 19.6104L155.568 24.472C155.404 24.8543 155.185 24.8725 155.021 24.4902L152.928 19.6468C152.855 19.4648 152.745 19.3191 152.563 19.3191H150.761C150.542 19.3191 150.36 19.5194 150.47 19.8107L153.82 27.3852C153.929 27.6401 153.965 27.8404 153.893 28.1135C153.638 29.2242 152.472 29.8615 151.271 29.8615C151.089 29.8615 150.925 30.0072 150.925 30.1893V31.6641C150.925 31.8462 151.089 32.01 151.271 32.01Z" fill="white"/>
<path d="M167.557 16.364H175.457V18.547H170.036V21.285H174.809V23.468H170.036V26.317H175.623V28.5H167.557V16.364ZM186.126 19.176L182.722 23.9675L186.126 28.5H183.407L181.242 25.3735L179.17 28.5H176.432L179.873 23.801L176.432 19.176H179.17L181.353 22.395L183.407 19.176H186.126ZM192.83 18.917C194.717 18.917 196.919 20.434 196.919 23.69C196.919 27.094 194.81 28.7405 192.645 28.7405C191.48 28.7405 190.499 28.13 189.741 26.8905V31.7375H187.373V19.176H189.741V20.8595C190.333 19.8235 191.313 18.917 192.83 18.917ZM192.109 20.9335C190.869 20.9335 189.741 21.8215 189.741 23.801C189.741 25.688 190.869 26.7055 192.09 26.7055C193.274 26.7055 194.495 25.7805 194.495 23.801C194.495 21.877 193.274 20.9335 192.109 20.9335ZM203.582 21.4145C202.324 21.4145 201.14 22.099 201.14 24.4855V28.5H198.772V19.176H201.14V21.4145C201.899 19.398 203.379 18.917 204.267 18.917C204.507 18.917 204.785 18.954 204.988 19.0465L204.803 21.618C204.452 21.4885 204.082 21.4145 203.582 21.4145ZM210.325 20.9335C209.104 20.9335 208.271 21.581 208.012 22.8945H212.6C212.434 21.507 211.49 20.9335 210.325 20.9335ZM214.839 24.43H207.975C208.16 25.8545 208.974 26.7425 210.454 26.7425C211.879 26.7425 212.397 26.132 212.637 25.2255L214.783 25.54C214.413 27.7415 212.286 28.7405 210.547 28.7405C207.735 28.7405 205.552 26.872 205.552 23.801C205.552 20.804 207.624 18.917 210.38 18.917C212.97 18.917 214.839 20.8965 214.839 23.69V24.43ZM216.363 21.8585C216.363 19.7495 218.342 18.917 219.952 18.917C221.913 18.917 223.337 19.7865 223.892 21.7845L221.765 22.1545C221.709 21.1185 221.006 20.73 220.007 20.73C219.193 20.73 218.657 21.1 218.657 21.692C218.657 22.099 218.934 22.5245 219.73 22.691L221.672 23.098C223.282 23.4125 224.04 24.319 224.04 25.6695C224.04 27.6305 222.19 28.7405 220.229 28.7405C218.305 28.7405 216.233 27.871 215.937 25.725L218.046 25.355C218.157 26.354 218.953 26.9275 220.137 26.9275C221.136 26.9275 221.746 26.5575 221.746 25.873C221.746 25.392 221.469 25.0775 220.47 24.874L218.694 24.504C217.103 24.171 216.363 23.1905 216.363 21.8585ZM225.54 21.8585C225.54 19.7495 227.52 18.917 229.129 18.917C231.09 18.917 232.515 19.7865 233.07 21.7845L230.942 22.1545C230.887 21.1185 230.184 20.73 229.185 20.73C228.371 20.73 227.834 21.1 227.834 21.692C227.834 22.099 228.112 22.5245 228.907 22.691L230.85 23.098C232.459 23.4125 233.218 24.319 233.218 25.6695C233.218 27.6305 231.368 28.7405 229.407 28.7405C227.483 28.7405 225.411 27.871 225.115 25.725L227.224 25.355C227.335 26.354 228.13 26.9275 229.314 26.9275C230.313 26.9275 230.924 26.5575 230.924 25.873C230.924 25.392 230.646 25.0775 229.647 24.874L227.871 24.504C226.28 24.171 225.54 23.1905 225.54 21.8585Z" fill="white"/>
</svg>
