<svg width="958" height="180" viewBox="0 0 958 180" fill="none" xmlns="http://www.w3.org/2000/svg">
<rect width="958" height="180" rx="14" fill="#F6F6F9"/>
<path d="M57.488 58.908C57.488 56.004 60.032 54.444 62.648 54.444C64.976 54.444 67.616 55.836 68.144 59.052L66.08 59.556C65.768 57.06 64.088 56.412 62.48 56.412C60.752 56.412 59.648 57.324 59.648 58.74C59.648 60.156 60.464 60.852 61.784 61.26L64.928 62.172C66.848 62.724 68.408 63.756 68.408 66.276C68.408 69.18 65.816 70.812 62.984 70.812C60.056 70.812 57.152 69.012 56.696 65.676L58.808 65.148C59.096 68.172 61.304 68.844 63.008 68.844C65.264 68.844 66.272 67.86 66.272 66.444C66.272 65.1 65.36 64.452 63.992 64.068L61.064 63.204C59.096 62.652 57.488 61.572 57.488 58.908ZM81.2896 70.5H79.2976V68.436C78.3376 70.116 76.6576 70.812 75.0736 70.812C72.9856 70.812 71.0896 69.66 71.0896 66.876V58.404H73.0816V66.3C73.0816 68.22 73.8976 68.964 75.7936 68.964C77.7136 68.964 79.2976 67.932 79.2976 65.508V58.404H81.2896V70.5ZM91.2526 58.068C93.7486 58.068 96.6526 60.036 96.6526 64.26C96.6526 68.676 93.8686 70.812 91.0126 70.812C89.3806 70.812 87.9166 69.828 86.9806 68.148V74.7H84.9886V58.404H86.9806V60.756C87.6766 59.508 89.0446 58.068 91.2526 58.068ZM90.7966 59.844C88.7806 59.844 86.9806 61.284 86.9806 64.404C86.9806 67.404 88.7806 69.036 90.7726 69.036C92.6686 69.036 94.6366 67.524 94.6366 64.308C94.6366 61.308 92.6446 59.844 90.7966 59.844ZM105.667 58.068C108.163 58.068 111.067 60.036 111.067 64.26C111.067 68.676 108.283 70.812 105.427 70.812C103.795 70.812 102.331 69.828 101.395 68.148V74.7H99.4027V58.404H101.395V60.756C102.091 59.508 103.459 58.068 105.667 58.068ZM105.211 59.844C103.195 59.844 101.395 61.284 101.395 64.404C101.395 67.404 103.195 69.036 105.187 69.036C107.083 69.036 109.051 67.524 109.051 64.308C109.051 61.308 107.059 59.844 105.211 59.844ZM118.689 58.068C121.857 58.068 124.473 60.468 124.473 64.428C124.473 68.388 121.857 70.812 118.689 70.812C115.497 70.812 112.905 68.388 112.905 64.428C112.905 60.468 115.497 58.068 118.689 58.068ZM118.689 59.844C116.649 59.844 114.921 61.356 114.921 64.428C114.921 67.524 116.649 69.036 118.689 69.036C120.729 69.036 122.457 67.524 122.457 64.428C122.457 61.356 120.729 59.844 118.689 59.844ZM132.622 60.228C130.894 60.228 129.238 61.404 129.238 65.172V70.5H127.246V58.404H129.238V61.14C130.174 58.692 132.094 58.068 133.198 58.068C133.63 58.068 134.014 58.14 134.302 58.26L134.062 60.444C133.678 60.324 133.27 60.228 132.622 60.228ZM137.412 55.452L139.404 55.068V58.404H142.572V60.084H139.404V67.62C139.404 68.508 139.836 68.964 140.892 68.964C141.468 68.964 141.756 68.892 142.164 68.796L142.548 70.476C141.996 70.644 141.228 70.812 140.628 70.812C138.444 70.812 137.412 69.588 137.412 67.692V60.084H135.036V58.404H137.412V55.452ZM156.18 70.812C153.636 70.812 150.78 68.772 150.78 64.428C150.78 60.132 153.612 58.068 156.108 58.068C158.148 58.068 159.492 58.908 160.332 60.924V58.404H162.324V70.5H160.332V67.788C159.756 69.348 158.436 70.812 156.18 70.812ZM156.516 59.844C154.692 59.844 152.796 61.284 152.796 64.476C152.796 67.644 154.692 69.036 156.516 69.036C158.556 69.036 160.332 67.716 160.332 64.476C160.332 61.332 158.532 59.844 156.516 59.844ZM171.388 59.916C169.42 59.916 168.004 61.044 168.004 63.516V70.5H166.012V58.404H168.004V60.276C168.82 58.716 170.572 58.068 171.988 58.068C174.148 58.068 176.116 59.148 176.116 62.388V70.5H174.124V62.964C174.124 60.732 172.924 59.916 171.388 59.916ZM190.426 54.228V70.5H188.434V68.244C187.81 69.612 186.586 70.812 184.234 70.812C181.738 70.812 178.858 68.748 178.858 64.332C178.858 60.108 181.69 58.068 184.57 58.068C186.274 58.068 187.618 58.956 188.434 60.66V54.228H190.426ZM184.69 59.844C182.842 59.844 180.874 61.308 180.874 64.38C180.874 67.524 182.818 69.036 184.666 69.036C186.682 69.036 188.434 67.644 188.434 64.476C188.434 61.428 186.682 59.844 184.69 59.844ZM211.238 54.228V70.5H209.246V68.244C208.622 69.612 207.398 70.812 205.046 70.812C202.55 70.812 199.67 68.748 199.67 64.332C199.67 60.108 202.502 58.068 205.382 58.068C207.086 58.068 208.43 58.956 209.246 60.66V54.228H211.238ZM205.502 59.844C203.654 59.844 201.686 61.308 201.686 64.38C201.686 67.524 203.63 69.036 205.478 69.036C207.494 69.036 209.246 67.644 209.246 64.476C209.246 61.428 207.494 59.844 205.502 59.844ZM219.894 59.844C217.878 59.844 216.486 60.948 216.126 63.156H223.59C223.446 60.852 221.91 59.844 219.894 59.844ZM225.51 64.764H216.03C216.15 67.284 217.494 69.036 220.11 69.036C222.318 69.036 223.206 68.004 223.566 66.42L225.39 66.828C224.934 69.588 222.318 70.812 220.134 70.812C216.726 70.812 214.014 68.388 214.014 64.404C214.014 60.516 216.63 58.068 219.942 58.068C223.23 58.068 225.51 60.396 225.51 64.044V64.764ZM226.774 58.404H229.03L232.51 68.052L236.014 58.404H238.246L233.422 70.5H231.598L226.774 58.404ZM245.371 59.844C243.355 59.844 241.963 60.948 241.603 63.156H249.067C248.923 60.852 247.387 59.844 245.371 59.844ZM250.987 64.764H241.507C241.627 67.284 242.971 69.036 245.587 69.036C247.795 69.036 248.683 68.004 249.043 66.42L250.867 66.828C250.411 69.588 247.795 70.812 245.611 70.812C242.203 70.812 239.491 68.388 239.491 64.404C239.491 60.516 242.107 58.068 245.419 58.068C248.707 58.068 250.987 60.396 250.987 64.044V64.764ZM253.762 54.228H255.754V70.5H253.762V54.228ZM264.329 58.068C267.497 58.068 270.113 60.468 270.113 64.428C270.113 68.388 267.497 70.812 264.329 70.812C261.137 70.812 258.545 68.388 258.545 64.428C258.545 60.468 261.137 58.068 264.329 58.068ZM264.329 59.844C262.289 59.844 260.561 61.356 260.561 64.428C260.561 67.524 262.289 69.036 264.329 69.036C266.369 69.036 268.097 67.524 268.097 64.428C268.097 61.356 266.369 59.844 264.329 59.844ZM279.151 58.068C281.647 58.068 284.551 60.036 284.551 64.26C284.551 68.676 281.767 70.812 278.911 70.812C277.279 70.812 275.815 69.828 274.879 68.148V74.7H272.887V58.404H274.879V60.756C275.575 59.508 276.943 58.068 279.151 58.068ZM278.695 59.844C276.679 59.844 274.879 61.284 274.879 64.404C274.879 67.404 276.679 69.036 278.671 69.036C280.567 69.036 282.535 67.524 282.535 64.308C282.535 61.308 280.543 59.844 278.695 59.844ZM299.877 59.916C298.221 59.916 296.997 61.044 296.997 63.516V70.5H294.981V63.036C294.981 60.804 293.805 59.916 292.269 59.916C290.565 59.916 289.293 61.044 289.293 63.516V70.5H287.301V58.404H289.293V60.252C290.085 58.692 291.669 58.068 293.061 58.068C294.525 58.068 296.013 58.668 296.661 60.42C297.525 58.62 299.229 58.068 300.549 58.068C302.661 58.068 304.677 59.148 304.677 62.388V70.5H302.685V62.916C302.685 60.804 301.509 59.916 299.877 59.916ZM313.293 59.844C311.277 59.844 309.885 60.948 309.525 63.156H316.989C316.845 60.852 315.309 59.844 313.293 59.844ZM318.909 64.764H309.429C309.549 67.284 310.893 69.036 313.509 69.036C315.717 69.036 316.605 68.004 316.965 66.42L318.789 66.828C318.333 69.588 315.717 70.812 313.533 70.812C310.125 70.812 307.413 68.388 307.413 64.404C307.413 60.516 310.029 58.068 313.341 58.068C316.629 58.068 318.909 60.396 318.909 64.044V64.764ZM327.06 59.916C325.092 59.916 323.676 61.044 323.676 63.516V70.5H321.684V58.404H323.676V60.276C324.492 58.716 326.244 58.068 327.66 58.068C329.82 58.068 331.788 59.148 331.788 62.388V70.5H329.796V62.964C329.796 60.732 328.596 59.916 327.06 59.916ZM336.162 55.452L338.154 55.068V58.404H341.322V60.084H338.154V67.62C338.154 68.508 338.586 68.964 339.642 68.964C340.218 68.964 340.506 68.892 340.914 68.796L341.298 70.476C340.746 70.644 339.978 70.812 339.378 70.812C337.194 70.812 336.162 69.588 336.162 67.692V60.084H333.786V58.404H336.162V55.452ZM350.442 54.228H352.434V60.708C353.082 59.556 354.402 58.068 356.61 58.068C359.106 58.068 362.01 60.036 362.01 64.26C362.01 68.676 359.25 70.812 356.37 70.812C354.666 70.812 353.25 69.804 352.434 68.316V70.5H350.442V54.228ZM356.226 59.844C354.234 59.844 352.434 61.284 352.434 64.404C352.434 67.404 354.234 69.036 356.202 69.036C358.074 69.036 359.994 67.524 359.994 64.308C359.994 61.308 358.05 59.844 356.226 59.844ZM365.674 74.628C364.906 74.628 364.162 74.412 363.706 74.196L364.042 72.492C364.378 72.66 364.978 72.9 365.818 72.9C367.642 72.9 368.362 71.316 367.642 69.516L363.202 58.404H365.458L369.058 68.58L372.442 58.404H374.674L369.778 71.436C368.962 73.62 367.738 74.628 365.674 74.628Z" fill="black"/>
<g clip-path="url(#clip0_107_7954)">
<g clip-path="url(#clip1_107_7954)">
<path opacity="0.972" fill-rule="evenodd" clip-rule="evenodd" d="M211.511 90.7715C212.854 90.4562 213.858 90.8786 214.524 92.0387C214.646 101.392 214.646 110.746 214.524 120.099C213.694 121.603 212.506 121.935 210.963 121.095C210.606 120.719 210.272 120.327 209.959 119.918C205.389 122.406 201.097 122.014 197.083 118.741C194.111 115.494 193.35 111.783 194.8 107.608C197.293 102.482 201.342 100.46 206.945 101.543C208.007 101.873 209.011 102.326 209.959 102.901C210.019 99.4008 210.08 95.9008 210.141 92.4008C210.344 91.6285 210.801 91.0854 211.511 90.7715ZM203.11 105.797C206.632 105.476 208.915 106.984 209.959 110.323C210.312 113.757 208.82 115.96 205.484 116.931C202.015 117.279 199.793 115.801 198.818 112.496C198.497 109.147 199.928 106.914 203.11 105.797Z" fill="black"/>
<path opacity="0.976" fill-rule="evenodd" clip-rule="evenodd" d="M71.9803 91.8575C77.018 91.5209 81.4622 92.939 85.3124 96.1118C79.3979 96.4948 74.3147 98.6974 70.0627 102.72C68.4856 104.338 67.542 106.269 67.2319 108.513C67.3806 109.776 67.959 110.802 68.9669 111.59C69.0564 111.824 69.0868 112.066 69.0582 112.314C65.7931 113.229 63.084 114.979 60.9311 117.564C60.5118 118.335 60.1465 119.119 59.8353 119.918C56.2009 114.958 55.2878 109.527 57.0958 103.625C59.7653 96.8441 64.7269 92.9217 71.9803 91.8575Z" fill="black"/>
<path opacity="0.967" fill-rule="evenodd" clip-rule="evenodd" d="M86.2256 98.1941C86.6561 98.1645 87.0822 98.1947 87.504 98.2846C91.6016 103.588 92.5451 109.411 90.3348 115.754C86.447 124.034 79.9027 127.624 70.7019 126.526C69.667 126.391 68.693 126.089 67.7798 125.621C74.8201 124.976 80.3903 121.807 84.4906 116.116C84.5788 115.945 84.6091 115.764 84.5819 115.573C83.839 116.095 83.1085 116.668 82.3903 117.293C80.634 118.438 78.7468 118.74 76.7288 118.198C75.693 117.378 75.3583 116.322 75.7243 115.03C76.5536 113.365 77.8625 112.188 79.6509 111.5C80.5032 111.259 81.3554 111.017 82.2077 110.776C83.0814 109.93 83.1727 108.995 82.4817 107.97C81.6319 107.651 80.7492 107.38 79.8335 107.155C78.9731 106.406 78.6992 105.471 79.0117 104.349C79.6721 102.348 80.92 100.81 82.7556 99.7329C83.8856 99.1115 85.0423 98.5986 86.2256 98.1941Z" fill="black"/>
<path opacity="0.958" fill-rule="evenodd" clip-rule="evenodd" d="M118.369 101.09C119.196 101.115 119.896 101.416 120.469 101.996C122.388 105.92 124.305 109.842 126.222 113.763C128.166 110.006 130.022 106.205 131.792 102.358C133.082 100.766 134.421 100.706 135.81 102.177C136.176 103.021 136.176 103.866 135.81 104.711C133.436 109.659 131.062 114.608 128.688 119.556C127.848 121.603 126.478 122.056 124.578 120.914C121.86 115.554 119.212 110.153 116.634 104.711C115.944 102.859 116.523 101.652 118.369 101.09Z" fill="black"/>
<path opacity="0.946" fill-rule="evenodd" clip-rule="evenodd" d="M161.287 101.09C162.037 101.117 162.707 101.358 163.296 101.814C164.791 101.256 166.313 101.105 167.862 101.362C169.736 102.688 169.796 104.076 168.045 105.526C167.067 105.694 166.093 105.875 165.123 106.069C164.656 106.193 164.321 106.464 164.118 106.883C164.057 111.168 163.996 115.452 163.935 119.737C163.2 121.534 161.952 121.986 160.192 121.095C159.702 120.697 159.428 120.185 159.37 119.556C159.248 114.065 159.248 108.573 159.37 103.082C159.555 101.963 160.194 101.3 161.287 101.09Z" fill="black"/>
<path opacity="0.959" fill-rule="evenodd" clip-rule="evenodd" d="M174.802 101.091C175.703 101.056 176.464 101.358 177.085 101.996C179.003 105.92 180.921 109.842 182.838 113.763C184.781 110.007 186.638 106.205 188.408 102.358C189.568 101.057 190.847 100.936 192.243 101.996C192.852 103.022 192.852 104.047 192.243 105.073C188.001 113.725 183.861 122.414 179.824 131.142C179.004 132.004 177.999 132.275 176.811 131.957C176.285 131.73 175.95 131.338 175.806 130.78C175.684 130.116 175.684 129.453 175.806 128.789C177.313 125.651 178.744 122.482 180.098 119.284C177.781 114.237 175.437 109.198 173.067 104.168C172.798 102.647 173.377 101.621 174.802 101.091Z" fill="black"/>
<path opacity="0.96" fill-rule="evenodd" clip-rule="evenodd" d="M240.367 101.09C241.201 101.094 241.901 101.396 242.467 101.996C244.416 105.978 246.362 109.961 248.311 113.944C250.137 110.082 251.964 106.22 253.79 102.358C254.957 101.056 256.236 100.935 257.625 101.996C258.153 102.867 258.215 103.772 257.808 104.711C253.615 113.445 249.476 122.195 245.389 130.961C244.478 132.063 243.351 132.335 242.01 131.776C241.172 131.017 240.898 130.082 241.189 128.97C242.697 125.719 244.189 122.46 245.663 119.194C243.208 114.147 240.803 109.078 238.449 103.987C238.311 102.509 238.949 101.544 240.367 101.09Z" fill="black"/>
<path opacity="0.963" fill-rule="evenodd" clip-rule="evenodd" d="M103.758 101.272C109.229 100.889 112.73 103.303 114.26 108.513C114.703 109.865 114.368 110.982 113.255 111.862C109.47 112.548 105.696 113.272 101.932 114.035C103.525 116.726 105.777 117.511 108.69 116.388C109.436 115.828 110.228 115.345 111.064 114.94C113.819 114.875 114.64 116.113 113.529 118.651C110.537 121.27 107.098 122.085 103.211 121.095C99.9654 119.826 97.9261 117.503 97.0924 114.125C95.9546 109.548 97.1417 105.716 100.654 102.629C101.635 102.015 102.67 101.563 103.758 101.272ZM105.22 105.797C106.858 105.825 108.137 106.519 109.055 107.879C106.729 108.399 104.386 108.852 102.023 109.237C101.871 109.177 101.719 109.116 101.567 109.056C102.169 107.251 103.386 106.165 105.22 105.797Z" fill="black"/>
<path opacity="0.964" fill-rule="evenodd" clip-rule="evenodd" d="M144.851 101.272C150.229 100.903 153.729 103.257 155.352 108.332C155.773 109.331 155.712 110.296 155.17 111.229C154.948 111.509 154.674 111.72 154.348 111.862C150.57 112.587 146.796 113.311 143.025 114.035C144.627 116.732 146.879 117.517 149.782 116.388C150.549 115.858 151.34 115.375 152.156 114.94C154.787 114.832 155.67 116.009 154.804 118.47C151.803 121.228 148.303 122.103 144.303 121.095C141.096 119.724 139.057 117.341 138.185 113.944C137.15 109.563 138.277 105.852 141.564 102.811C142.566 102.069 143.662 101.556 144.851 101.272ZM146.312 105.798C148.003 105.756 149.281 106.45 150.147 107.88C147.822 108.401 145.478 108.854 143.116 109.237C142.964 109.177 142.812 109.117 142.659 109.056C143.261 107.251 144.479 106.165 146.312 105.798Z" fill="black"/>
<path opacity="0.966" fill-rule="evenodd" clip-rule="evenodd" d="M225.391 101.272C227.587 101.083 229.718 101.355 231.783 102.086C234.073 103.451 235.381 105.472 235.71 108.151C235.754 111.713 235.846 115.274 235.984 118.832C235.926 120.851 234.892 121.726 232.879 121.457C232.305 121.099 231.818 120.646 231.418 120.099C228.687 121.436 225.826 121.828 222.834 121.276C219.267 120.031 217.715 117.526 218.177 113.763C219.183 110.898 221.223 109.299 224.296 108.966C226.635 108.719 228.948 108.629 231.236 108.694C231.06 107.22 230.268 106.285 228.861 105.888C226.459 105.576 224.328 106.179 222.469 107.698C220.034 108.121 218.969 107.125 219.273 104.711C220.045 103.619 221.049 102.805 222.287 102.267C223.333 101.904 224.368 101.572 225.391 101.272ZM226.852 113.22C228.272 113.153 229.672 113.274 231.053 113.582C229.985 115.932 228.128 117.078 225.483 117.022C224.553 116.978 223.731 116.676 223.017 116.117C222.473 115.411 222.534 114.777 223.2 114.216C224.385 113.687 225.603 113.355 226.852 113.22Z" fill="black"/>
<path opacity="0.971" fill-rule="evenodd" clip-rule="evenodd" d="M255.526 117.203C256.864 117.203 258.205 117.203 259.543 117.203C259.575 118.592 259.543 119.98 259.452 121.366C258.113 121.608 256.773 121.608 255.434 121.366C255.288 119.964 255.319 118.576 255.526 117.203Z" fill="black"/>
</g>
</g>
<g clip-path="url(#clip2_107_7954)">
<path d="M941.212 74.2161L941.224 74.2119L941.235 74.2069C942.052 73.8553 942.625 73.9234 942.98 74.1689C943.341 74.4183 943.602 74.9368 943.602 75.7565V108.832C943.602 109.475 943.457 109.999 943.178 110.414C942.899 110.827 942.465 111.163 941.831 111.395C930.097 115.666 921.157 117.789 912.234 117.789C903.311 117.789 894.372 115.666 882.638 111.396C882.003 111.163 881.569 110.827 881.291 110.414C881.011 109.999 880.866 109.475 880.866 108.832V75.7565C880.866 74.9368 881.127 74.4183 881.488 74.1689C881.844 73.9234 882.417 73.8553 883.233 74.2069L883.244 74.2119L883.256 74.2161C894.523 78.2464 903.371 80.2734 912.234 80.2734C921.098 80.2734 929.946 78.2464 941.212 74.2161Z" stroke="#FF5B24" stroke-width="0.818061"/>
<path d="M883.256 72.9143L883.244 72.9184L883.232 72.9234C882.416 73.2764 881.844 73.2081 881.489 72.9619C881.128 72.7111 880.866 72.1894 880.866 71.3651V38.1414C880.866 37.4957 881.011 36.9687 881.291 36.5515C881.57 36.136 882.004 35.7979 882.638 35.5651C894.372 31.275 903.312 29.1436 912.234 29.1436C921.157 29.1436 930.096 31.275 941.83 35.5651C942.464 35.7979 942.898 36.136 943.177 36.5515C943.457 36.9687 943.602 37.4957 943.602 38.1414V71.3651C943.602 72.1894 943.341 72.7111 942.979 72.9619C942.624 73.2081 942.052 73.2764 941.236 72.9234L941.224 72.9184L941.213 72.9143C929.946 68.8659 921.098 66.8296 912.234 66.8296C903.37 66.8296 894.522 68.8659 883.256 72.9143Z" stroke="#FF5B24" stroke-width="0.818061"/>
<path d="M858.529 122.298L858.525 122.286L858.52 122.274C858.285 121.723 858.342 121.366 858.482 121.161C858.626 120.952 858.941 120.777 859.488 120.777H882.518C882.946 120.777 883.286 120.874 883.55 121.054C883.813 121.233 884.034 121.515 884.188 121.942C887.16 130.177 888.633 136.442 888.633 142.689C888.633 148.937 887.16 155.201 884.188 163.437C884.034 163.864 883.813 164.146 883.55 164.325C883.286 164.504 882.946 164.602 882.518 164.602H859.488C858.941 164.602 858.626 164.426 858.482 164.217C858.342 164.013 858.285 163.656 858.52 163.104L858.525 163.092L858.529 163.081C861.338 155.162 862.754 148.933 862.754 142.689C862.754 136.445 861.338 130.217 858.529 122.298Z" stroke="#FF5B24" stroke-width="0.818061"/>
<path d="M756.191 165H789.26C790.664 165 791.686 164.362 792.196 162.96C800.751 139.374 800.751 126.88 792.196 103.295C791.686 101.892 790.664 101.255 789.26 101.255H756.191C754.403 101.255 753.509 102.402 754.275 104.187C762.319 126.753 762.319 139.502 754.275 162.068C753.509 163.852 754.403 165 756.191 165Z" fill="#5A78FF"/>
<path d="M889.23 141.394C889.23 128.687 899.529 118.386 912.234 118.386C924.938 118.386 935.237 128.687 935.237 141.394C935.237 154.101 924.938 164.402 912.234 164.402C899.529 164.402 889.23 154.101 889.23 141.394Z" stroke="#FF5B24" stroke-width="0.818061"/>
<path d="M848.602 15.1993C831.003 15.1993 816.736 29.4691 816.736 47.0718C816.736 64.6745 831.003 78.9443 848.602 78.9443C866.201 78.9443 880.468 64.6745 880.468 47.0718C880.468 29.4691 866.201 15.1993 848.602 15.1993Z" fill="#FF5B24"/>
<path d="M857.614 161.175L857.618 161.187L857.623 161.199C858.108 162.33 858.03 163.163 857.661 163.699C857.289 164.24 856.537 164.602 855.407 164.602H810.823C809.937 164.602 809.202 164.401 808.615 164.003C808.03 163.607 807.559 162.993 807.239 162.111C801.479 146.209 798.612 134.083 798.612 121.972C798.612 109.862 801.479 97.735 807.239 81.8338C807.559 80.9515 808.03 80.3376 808.615 79.9412C809.202 79.5436 809.937 79.3428 810.823 79.3428H855.407C856.537 79.3428 857.289 79.7049 857.661 80.2458C858.03 80.7814 858.108 81.6141 857.623 82.746L857.618 82.7575L857.614 82.7693C852.184 98.0223 849.457 109.99 849.457 121.972C849.457 133.955 852.184 145.922 857.614 161.175Z" stroke="#FF5B24" stroke-width="0.818061"/>
</g>
<defs>
<clipPath id="clip0_107_7954">
<rect width="304" height="42" fill="white" transform="translate(56 90.5)"/>
</clipPath>
<clipPath id="clip1_107_7954">
<rect width="204" height="42" fill="white" transform="translate(56 90.5)"/>
</clipPath>
<clipPath id="clip2_107_7954">
<rect width="190" height="150" fill="white" transform="translate(754 15)"/>
</clipPath>
</defs>
</svg>
