<svg version="1.1" id="Layer_1" xmlns="http://www.w3.org/2000/svg" xmlns:xlink="http://www.w3.org/1999/xlink" x="0px" y="0px" width="190px" height="45px" viewBox="0 0 190 45" enable-background="new 0 0 190 45" xml:space="preserve">
<path fill="#FE5B24" d="M187,0H3C1.35,0,0,1.35,0,3v39c0,1.65,1.35,3,3,3h184c1.65,0,3-1.35,3-3V3C190,1.35,188.65,0,187,0z M188,42
c0,0.55-0.45,1-1,1H44V2h143c0.55,0,1,0.45,1,1V42z"></path>
<g id="Page-1" transform="translate(55.000000, 16.000000)">
<polygon id="Fill-1" fill="#FF5B24" points="5.46,3.45 3.74,8.51 2.02,3.45 0,3.45 2.99,10.95 4.49,10.95 7.48,3.45 "></polygon>
<g id="Group-26" transform="translate(0.000000, 0.554700)">
<path id="Fill-2" fill="#FF5B24" d="M13.27,4.03c-0.55,0-1.01,0.42-1.01,1.01s0.47,1.01,1.01,1.01c0.55,0,1.01-0.42,1.01-1.01
S13.82,4.03,13.27,4.03 M8.88,7.27c0.78,1.14,1.78,1.92,3.07,1.92c1.26,0,1.98-0.61,2.65-1.49c0.36-0.48,0.85-0.57,1.17-0.31
c0.35,0.27,0.36,0.77,0,1.25c-0.98,1.3-2.22,2.08-3.82,2.08c-1.74,0-3.24-0.96-4.32-2.61c-0.3-0.43-0.22-0.92,0.1-1.16
C8.09,6.69,8.57,6.8,8.88,7.27"></path>
<path id="Fill-4" fill="#FF5B24" d="M19.08,6.63c0,1.53,0.88,2.34,1.87,2.34c0.94,0,1.9-0.75,1.9-2.34c0-1.56-0.96-2.31-1.89-2.31
C19.97,4.32,19.08,5.03,19.08,6.63 M24.7,6.54c0,2.73-1.64,4.06-3.32,4.06c-0.9,0-1.69-0.35-2.3-1.18V13h-1.83V2.91h1.83v1.03
c0.51-0.7,1.3-1.23,2.46-1.23C23,2.7,24.7,3.93,24.7,6.54"></path>
<path id="Fill-6" fill="#FF5B24" d="M27.88,6.63c0,1.53,0.88,2.34,1.87,2.34c0.94,0,1.9-0.75,1.9-2.34c0-1.56-0.96-2.31-1.89-2.31
C28.77,4.32,27.88,5.03,27.88,6.63 M33.5,6.54c0,2.73-1.64,4.06-3.32,4.06c-0.9,0-1.69-0.35-2.3-1.18V13h-1.83V2.91h1.83v1.03
c0.51-0.7,1.3-1.23,2.46-1.23C31.8,2.7,33.5,3.93,33.5,6.54"></path>
<path id="Fill-8" fill="#FF5B24" d="M37.37,2.7c1.51,0,2.61,0.7,3.07,2.47l-1.65,0.26c-0.03-0.9-0.58-1.17-1.38-1.17
c-0.62,0-1.08,0.27-1.08,0.7c0,0.34,0.23,0.69,0.94,0.82l1.26,0.23c1.23,0.23,1.9,1.04,1.9,2.14c0,1.62-1.47,2.43-2.85,2.43
c-1.46,0-3.07-0.75-3.33-2.59l1.65-0.26C36,8.7,36.58,9.03,37.52,9.03c0.71,0,1.2-0.26,1.2-0.72c0-0.4-0.22-0.7-1-0.85l-1.14-0.21
c-1.21-0.22-1.95-1.08-1.95-2.17C34.62,3.41,36.15,2.7,37.37,2.7"></path>
<polygon id="Fill-10" fill="#FF5B24" points="46.69,1.4 46.69,5.15 51.16,5.15 51.16,1.4 52.73,1.4 52.73,10.4 51.16,10.4 
51.16,6.55 46.69,6.55 46.69,10.4 45.11,10.4 45.11,1.4 "></polygon>
<path id="Fill-12" fill="#FF5B24" d="M59.38,10.4V9.24c-0.54,0.95-1.5,1.34-2.36,1.34c-1.15,0-2.3-0.67-2.3-2.27V3.49h1.5v4.02
c0,1.16,0.46,1.72,1.29,1.72c1.09,0,1.87-0.54,1.87-1.72V3.49h1.5v6.91H59.38z"></path>
<path id="Fill-14" fill="#FF5B24" d="M64.28,7.38v3.02h-1.5V3.49h1.5v1.66C64.84,3.7,65.92,3.3,66.6,3.3
c0.18,0,0.38,0.02,0.53,0.1l-0.14,1.68c-0.26-0.11-0.53-0.15-0.9-0.15C65.12,4.92,64.28,5.46,64.28,7.38"></path>
<path id="Fill-16" fill="#FF5B24" d="M70.29,1.58v1.91h1.73V4.7h-1.73v3.68c0,0.54,0.22,0.82,0.83,0.82c0.28,0,0.41-0.05,0.69-0.1
l0.24,1.21c-0.36,0.11-0.88,0.2-1.43,0.2c-1.37,0-1.83-0.82-1.83-1.85V4.7h-1.28V3.49h1.28V1.82L70.29,1.58z"></path>
<g id="Clip-19">
</g>
<defs>
<filter id="Adobe_OpacityMaskFilter" filterUnits="userSpaceOnUse" x="73.24" y="0.44" width="1.99" height="9.95">
<feColorMatrix type="matrix" values="1 0 0 0 0 0 1 0 0 0 0 0 1 0 0 0 0 0 1 0"></feColorMatrix>
</filter>
</defs>
<mask maskUnits="userSpaceOnUse" x="73.24" y="0.44" width="1.99" height="9.95" id="mask-2_1_">
<g filter="url(#Adobe_OpacityMaskFilter)">
<polygon id="path-1_1_" fill="#FFFFFF" points="0,13 120.78,13 120.78,0.44 0,0.44 "></polygon>
</g>
</mask>
<path id="Fill-18" mask="url(#mask-2_1_)" fill="#FF5B24" d="M73.49,10.4h1.5V3.49h-1.5V10.4z M75.23,1.44c0,0.55-0.44,1-1,1
s-1-0.44-1-1s0.44-1,1-1S75.23,0.89,75.23,1.44z"></path>
<defs>
<filter id="Adobe_OpacityMaskFilter_1_" filterUnits="userSpaceOnUse" x="76.51" y="3.3" width="6.67" height="9.6">
<feColorMatrix type="matrix" values="1 0 0 0 0 0 1 0 0 0 0 0 1 0 0 0 0 0 1 0"></feColorMatrix>
</filter>
</defs>
<mask maskUnits="userSpaceOnUse" x="76.51" y="3.3" width="6.67" height="9.6" id="mask-2_2_">
<g filter="url(#Adobe_OpacityMaskFilter_1_)">
<polygon id="path-1_2_" fill="#FFFFFF" points="0,13 120.78,13 120.78,0.44 0,0.44 "></polygon>
</g>
</mask>
<path id="Fill-20" mask="url(#mask-2_2_)" fill="#FF5B24" d="M78.05,6.63c0,1.4,0.82,2.06,1.79,2.06c1.01,0,1.83-0.66,1.83-2.05
c0-1.32-0.83-2.05-1.83-2.05C78.91,4.59,78.05,5.28,78.05,6.63 M76.54,6.55c0-2.19,1.47-3.25,3.03-3.25c0.91,0,1.57,0.46,2.1,1.52
V3.48h1.5v5.95c0,2.31-1.3,3.47-3.5,3.47c-1.25,0-2.82-0.59-3.17-2.34l1.45-0.24c0.13,1,0.94,1.24,1.78,1.24
c1.33,0,1.94-0.6,1.94-2.06V8.46C81.3,9.21,80.67,10,79.46,10C78.04,10,76.54,8.9,76.54,6.55"></path>
<defs>
<filter id="Adobe_OpacityMaskFilter_2_" filterUnits="userSpaceOnUse" x="85.1" y="1.1" width="6.39" height="9.3">
<feColorMatrix type="matrix" values="1 0 0 0 0 0 1 0 0 0 0 0 1 0 0 0 0 0 1 0"></feColorMatrix>
</filter>
</defs>
<mask maskUnits="userSpaceOnUse" x="85.1" y="1.1" width="6.39" height="9.3" id="mask-2_3_">
<g filter="url(#Adobe_OpacityMaskFilter_2_)">
<polygon id="path-1_3_" fill="#FFFFFF" points="0,13 120.78,13 120.78,0.44 0,0.44 "></polygon>
</g>
</mask>
<polygon id="Fill-21" mask="url(#mask-2_3_)" fill="#FF5B24" points="86.6,1.1 86.6,7.21 89.49,3.49 91.12,3.49 88.73,6.35 
91.49,10.4 89.93,10.4 87.89,7.35 86.6,8.9 86.6,10.4 85.1,10.4 85.1,1.1 "></polygon>
<defs>
<filter id="Adobe_OpacityMaskFilter_3_" filterUnits="userSpaceOnUse" x="91.97" y="3.3" width="6.87" height="7.28">
<feColorMatrix type="matrix" values="1 0 0 0 0 0 1 0 0 0 0 0 1 0 0 0 0 0 1 0"></feColorMatrix>
</filter>
</defs>
<mask maskUnits="userSpaceOnUse" x="91.97" y="3.3" width="6.87" height="7.28" id="mask-2_4_">
<g filter="url(#Adobe_OpacityMaskFilter_3_)">
<polygon id="path-1_4_" fill="#FFFFFF" points="0,13 120.78,13 120.78,0.44 0,0.44 "></polygon>
</g>
</mask>
<path id="Fill-22" mask="url(#mask-2_4_)" fill="#FF5B24" d="M93.49,6.96c0,1.61,0.98,2.31,1.93,2.31c1.02,0,1.93-0.67,1.93-2.31
c0-1.6-0.91-2.36-1.92-2.36C94.48,4.59,93.49,5.33,93.49,6.96 M91.97,6.87c0-2.41,1.59-3.57,3.05-3.57c1.08,0,1.83,0.46,2.33,1.55
V3.49h1.5v6.91h-1.5V8.97c-0.35,0.85-1.1,1.61-2.34,1.61C93.58,10.58,91.97,9.4,91.97,6.87"></path>
<defs>
<filter id="Adobe_OpacityMaskFilter_4_" filterUnits="userSpaceOnUse" x="100.34" y="3.3" width="5.82" height="7.28">
<feColorMatrix type="matrix" values="1 0 0 0 0 0 1 0 0 0 0 0 1 0 0 0 0 0 1 0"></feColorMatrix>
</filter>
</defs>
<mask maskUnits="userSpaceOnUse" x="100.34" y="3.3" width="5.82" height="7.28" id="mask-2_5_">
<g filter="url(#Adobe_OpacityMaskFilter_4_)">
<polygon id="path-1_5_" fill="#FFFFFF" points="0,13 120.78,13 120.78,0.44 0,0.44 "></polygon>
</g>
</mask>
<path id="Fill-23" mask="url(#mask-2_5_)" fill="#FF5B24" d="M103.22,3.3c1.39,0,2.44,0.61,2.83,2.16l-1.33,0.24
c-0.05-0.9-0.66-1.2-1.49-1.2c-0.76,0-1.28,0.32-1.28,0.84c0,0.35,0.28,0.66,1.06,0.83l1.37,0.3c1.22,0.26,1.79,0.91,1.79,1.87
c0,1.5-1.42,2.24-2.75,2.24c-1.34,0-2.84-0.66-3.07-2.27l1.33-0.24c0.1,0.96,0.73,1.31,1.68,1.31c0.85,0,1.42-0.32,1.42-0.9
c0-0.41-0.24-0.66-1.1-0.85l-1.26-0.28c-1.25-0.28-1.85-0.95-1.85-1.89C100.55,3.94,102.04,3.3,103.22,3.3"></path>
<defs>
<filter id="Adobe_OpacityMaskFilter_5_" filterUnits="userSpaceOnUse" x="107.19" y="3.3" width="5.82" height="7.28">
<feColorMatrix type="matrix" values="1 0 0 0 0 0 1 0 0 0 0 0 1 0 0 0 0 0 1 0"></feColorMatrix>
</filter>
</defs>
<mask maskUnits="userSpaceOnUse" x="107.19" y="3.3" width="5.82" height="7.28" id="mask-2_6_">
<g filter="url(#Adobe_OpacityMaskFilter_5_)">
<polygon id="path-1_6_" fill="#FFFFFF" points="0,13 120.78,13 120.78,0.44 0,0.44 "></polygon>
</g>
</mask>
<path id="Fill-24" mask="url(#mask-2_6_)" fill="#FF5B24" d="M110.07,3.3c1.39,0,2.44,0.61,2.83,2.16l-1.33,0.24
c-0.05-0.9-0.66-1.2-1.49-1.2c-0.76,0-1.28,0.32-1.28,0.84c0,0.35,0.28,0.66,1.06,0.83l1.37,0.3c1.22,0.26,1.79,0.91,1.79,1.87
c0,1.5-1.42,2.24-2.75,2.24c-1.34,0-2.84-0.66-3.07-2.27l1.33-0.24c0.1,0.96,0.73,1.31,1.68,1.31c0.85,0,1.42-0.32,1.42-0.9
c0-0.41-0.24-0.66-1.1-0.85l-1.26-0.28c-1.25-0.28-1.85-0.95-1.85-1.89C107.41,3.94,108.89,3.3,110.07,3.3"></path>
<defs>
<filter id="Adobe_OpacityMaskFilter_6_" filterUnits="userSpaceOnUse" x="114.04" y="3.3" width="6.74" height="7.28">
<feColorMatrix type="matrix" values="1 0 0 0 0 0 1 0 0 0 0 0 1 0 0 0 0 0 1 0"></feColorMatrix>
</filter>
</defs>
<mask maskUnits="userSpaceOnUse" x="114.04" y="3.3" width="6.74" height="7.28" id="mask-2_7_">
<g filter="url(#Adobe_OpacityMaskFilter_6_)">
<polygon id="path-1_7_" fill="#FFFFFF" points="0,13 120.78,13 120.78,0.44 0,0.44 "></polygon>
</g>
</mask>
<path id="Fill-25" mask="url(#mask-2_7_)" fill="#FF5B24" d="M115.61,6.2h3.75c-0.12-1.15-0.89-1.61-1.86-1.61
C116.51,4.6,115.82,5.14,115.61,6.2z M115.56,7.27c0.11,1.21,0.79,2.02,2.04,2.02c1.13,0,1.58-0.48,1.74-1.27l1.39,0.24
c-0.26,1.59-1.8,2.33-3.07,2.33c-2.04,0-3.62-1.38-3.62-3.66c0-2.22,1.52-3.62,3.53-3.62c1.87,0,3.21,1.44,3.21,3.48v0.49H115.56z
"></path>
</g>
</g>
<g id="Page-1_1_" transform="translate(9.000000, 12.000000)">
<g id="Clip-2">
</g>
<defs>
<filter id="Adobe_OpacityMaskFilter_7_" filterUnits="userSpaceOnUse" x="0" y="0" width="27" height="21">
<feColorMatrix type="matrix" values="1 0 0 0 0 0 1 0 0 0 0 0 1 0 0 0 0 0 1 0"></feColorMatrix>
</filter>
</defs>
<mask maskUnits="userSpaceOnUse" x="0" y="0" width="27" height="21" id="mask-4_1_">
<g filter="url(#Adobe_OpacityMaskFilter_7_)">
<polygon id="path-3_1_" fill="#FFFFFF" points="0,0 27,0 27,21 0,21 "></polygon>
</g>
</mask>
<path id="Fill-1_1_" mask="url(#mask-4_1_)" fill="#FFFFFF" d="M18.31,0c-1.72,0-3.19,1.31-3.19,3.19c0,1.88,1.47,3.19,3.19,3.19
c1.72,0,3.19-1.31,3.19-3.19C21.5,1.31,20.03,0,18.31,0 M4.51,10.17c2.45,3.59,5.6,6.05,9.64,6.05c3.96,0,6.21-1.92,8.33-4.7
c1.14-1.51,2.66-1.8,3.68-0.98c1.1,0.86,1.14,2.41,0,3.92C23.09,18.55,19.17,21,14.15,21c-5.47,0-10.17-3.02-13.56-8.21
c-0.94-1.35-0.69-2.9,0.33-3.64C2.02,8.38,3.53,8.7,4.51,10.17"></path>
</g>
</svg>
