<svg width="250" height="44" viewBox="0 0 250 44" fill="none" xmlns="http://www.w3.org/2000/svg">
<rect width="250" height="44" rx="5" fill="#5A78FF"/>
<path d="M47.8624 16.364H50.4894L54.4669 25.244L58.2964 16.364H60.8864V28.5H58.7774V19.7125L54.9849 28.5H53.7639L49.9529 19.7495V28.5H47.8624V16.364ZM67.1274 28.7405C65.2034 28.7405 63.0389 27.1495 63.0389 23.7455C63.0389 20.4895 65.1849 18.917 67.1459 18.917C68.6074 18.917 69.6249 19.5275 70.2909 20.989V19.176H72.3074V28.5H70.2909V26.5945C69.8284 27.723 68.7924 28.7405 67.1274 28.7405ZM67.7009 20.656C66.4244 20.656 65.0739 21.655 65.0739 23.8565C65.0739 26.021 66.4059 26.983 67.6824 26.983C69.0699 26.983 70.2909 26.0765 70.2909 23.8565C70.2909 21.692 69.0699 20.656 67.7009 20.656ZM74.9044 28.5V15.957H76.9209V24.023L81.0279 19.176H83.2294L79.8069 23.024L83.5624 28.5H81.3424L78.5859 24.393L76.9209 26.2615V28.5H74.9044ZM84.3647 21.803C84.3647 19.7495 86.2702 18.917 87.7872 18.917C89.6742 18.917 91.0802 19.7495 91.6167 21.8215L89.8037 22.1545C89.7482 20.9335 88.9157 20.5265 87.8057 20.5265C86.9177 20.5265 86.3072 20.952 86.3072 21.618C86.3072 22.099 86.6217 22.5985 87.4912 22.7835L89.3412 23.1905C90.9877 23.542 91.7462 24.4115 91.7462 25.7065C91.7462 27.7415 89.8407 28.7405 88.0462 28.7405C86.2332 28.7405 84.2167 27.8525 83.9022 25.688L85.6967 25.355C85.8262 26.502 86.6957 27.131 87.9907 27.131C89.0822 27.131 89.8037 26.687 89.8037 25.9285C89.8037 25.3735 89.4892 25.0035 88.3792 24.763L86.6957 24.393C85.1047 24.0415 84.3647 23.098 84.3647 21.803ZM97.1357 28.7405C95.2117 28.7405 93.0472 27.1495 93.0472 23.7455C93.0472 20.4895 95.1932 18.917 97.1542 18.917C98.6157 18.917 99.6332 19.5275 100.299 20.989V19.176H102.316V28.5H100.299V26.5945C99.8367 27.723 98.8007 28.7405 97.1357 28.7405ZM97.7092 20.656C96.4327 20.656 95.0822 21.655 95.0822 23.8565C95.0822 26.021 96.4142 26.983 97.6907 26.983C99.0782 26.983 100.299 26.0765 100.299 23.8565C100.299 21.692 99.0782 20.656 97.7092 20.656Z" fill="white"/>
<path fill-rule="evenodd" clip-rule="evenodd" d="M110.312 28.4594H112.388C112.552 28.4594 112.679 28.3866 112.734 28.2045L115.137 20.6118C115.174 20.4661 115.319 20.4661 115.374 20.6118L118.233 28.1499C118.306 28.3502 118.415 28.4594 118.615 28.4594H119.908C120.09 28.4594 120.236 28.3684 120.308 28.1499L123.076 20.6118C123.131 20.4661 123.295 20.4661 123.331 20.6118L125.68 28.2045C125.716 28.3502 125.825 28.4594 126.008 28.4594H128.211C128.429 28.4594 128.557 28.2956 128.484 28.0589L124.86 16.3693C124.806 16.2055 124.678 16.078 124.514 16.078H122.657C122.493 16.078 122.348 16.2237 122.293 16.3693L119.434 23.7436C119.38 23.9074 119.234 23.8892 119.18 23.7436L116.303 16.3693C116.248 16.2237 116.102 16.078 115.939 16.078H114.081C113.917 16.078 113.79 16.2055 113.735 16.3693L110.039 28.0589C109.966 28.3138 110.094 28.4594 110.312 28.4594ZM133.964 28.6961C131.16 28.6961 129.085 26.584 129.085 23.8892C129.085 21.1762 131.16 19.0823 133.964 19.0823C136.787 19.0823 138.844 21.1762 138.844 23.8892C138.844 26.584 136.787 28.6961 133.964 28.6961ZM133.964 26.4384C135.294 26.4384 136.368 25.2912 136.368 23.8892C136.368 22.469 135.294 21.3401 133.964 21.3401C132.653 21.3401 131.561 22.469 131.561 23.8892C131.561 25.2912 132.653 26.4384 133.964 26.4384ZM145.69 28.6961C144.616 28.6961 143.888 28.2591 143.214 27.7129C143.032 27.5672 142.868 27.6219 142.868 27.8768V28.1135C142.868 28.2956 142.722 28.4594 142.54 28.4594H140.829C140.647 28.4594 140.483 28.2956 140.483 28.1135V16.424C140.483 16.2419 140.647 16.078 140.829 16.078H142.631C142.813 16.078 142.959 16.2419 142.959 16.424V19.756C142.959 19.9927 143.123 20.0656 143.378 19.8835C143.924 19.4829 144.725 19.0823 145.763 19.0823C148.258 19.0823 150.169 21.1945 150.169 23.8892C150.169 26.584 148.221 28.6961 145.69 28.6961ZM145.272 26.4201C146.619 26.4201 147.693 25.2912 147.693 23.8892C147.693 22.469 146.619 21.3401 145.272 21.3401C143.961 21.3401 142.886 22.4508 142.886 23.8892C142.886 25.3095 143.942 26.4201 145.272 26.4201ZM153.065 18.3176C153.811 18.3176 154.448 17.6803 154.448 16.9338C154.448 16.1873 153.811 15.55 153.065 15.55C152.318 15.55 151.681 16.1873 151.681 16.9338C151.681 17.6803 152.318 18.3176 153.065 18.3176ZM152.136 28.4594H153.939C154.121 28.4594 154.284 28.2956 154.284 28.1135V19.665C154.284 19.4829 154.121 19.319 153.939 19.319H152.136C151.954 19.319 151.808 19.4829 151.808 19.665V28.1135C151.808 28.2956 151.954 28.4594 152.136 28.4594ZM159.656 28.5505C159.838 28.5505 160.002 28.4048 160.002 28.2227V26.7297C160.002 26.5294 159.838 26.3837 159.656 26.3837C159.019 26.3837 158.764 26.0014 158.764 25.4187V16.424C158.764 16.2419 158.6 16.078 158.418 16.078H156.615C156.433 16.078 156.287 16.2419 156.287 16.424V25.3641C156.287 27.7675 157.252 28.5505 159.656 28.5505ZM165.482 28.6961C162.715 28.6961 160.748 26.6751 160.748 23.9257C160.748 21.158 162.788 19.0823 165.519 19.0823C168.232 19.0823 170.216 21.1945 170.216 23.9621C170.216 24.2898 170.125 24.5629 169.798 24.5629H163.534C163.37 24.5629 163.316 24.654 163.334 24.7996C163.461 25.8375 164.372 26.6022 165.555 26.6022C166.338 26.6022 166.903 26.2563 167.285 25.8193C167.485 25.6008 167.649 25.528 167.868 25.528H169.543C169.834 25.528 169.962 25.7282 169.852 26.0196C169.251 27.5672 167.54 28.6961 165.482 28.6961ZM163.552 23.0881H167.394C167.522 23.0881 167.576 23.0335 167.558 22.8878C167.376 21.9228 166.52 21.1762 165.482 21.1762C164.481 21.1762 163.643 21.8864 163.407 22.8332C163.37 22.9606 163.388 23.0881 163.552 23.0881ZM172.347 28.4594C172.165 28.4594 172.019 28.2956 172.019 28.1135V16.424C172.019 16.2419 172.165 16.078 172.347 16.078H178.082C180.704 16.078 182.489 17.6075 182.489 20.1748C182.489 22.6875 180.468 24.3262 177.955 24.3262H174.914C174.696 24.3262 174.586 24.4537 174.586 24.6722V28.1135C174.586 28.2956 174.422 28.4594 174.24 28.4594H172.347ZM174.896 22.2141H177.955C179.211 22.2141 179.903 21.1398 179.903 20.193C179.903 19.1916 179.229 18.2448 177.955 18.2448H174.896C174.677 18.2448 174.586 18.354 174.586 18.5725V21.8864C174.586 22.1049 174.677 22.2141 174.896 22.2141ZM188.024 28.6961C185.584 28.6961 183.545 26.6386 183.545 23.8892C183.545 21.1216 185.62 19.0823 188.06 19.0823C189.098 19.0823 189.826 19.4829 190.482 20.0109C190.646 20.1566 190.828 20.1384 190.828 19.9199V19.6468C190.828 19.4647 190.974 19.319 191.156 19.319H192.867C193.049 19.319 193.213 19.4829 193.213 19.665V25.6918C193.213 26.147 193.377 26.3473 193.687 26.3655C193.85 26.3837 193.996 26.493 193.996 26.6568V28.2409C193.996 28.4048 193.869 28.5505 193.687 28.5505C192.485 28.5505 191.775 28.2045 191.374 27.5126C191.265 27.3305 191.137 27.2941 190.955 27.4762C190.227 28.1499 189.389 28.6961 188.024 28.6961ZM188.443 26.4384C189.772 26.4384 190.828 25.3095 190.828 23.8892C190.828 22.4508 189.772 21.3401 188.443 21.3401C187.095 21.3401 186.039 22.469 186.039 23.8892C186.039 25.2912 187.095 26.4384 188.443 26.4384ZM195.271 32.01C197.929 32.01 199.258 30.8993 200.514 27.9314L203.956 19.756C204.047 19.5375 203.883 19.319 203.646 19.319H201.917C201.734 19.319 201.643 19.4283 201.571 19.6104L199.568 24.4719C199.404 24.8543 199.185 24.8725 199.021 24.4901L196.928 19.6468C196.855 19.4647 196.745 19.319 196.563 19.319H194.761C194.542 19.319 194.36 19.5193 194.469 19.8107L197.82 27.3852C197.929 27.6401 197.965 27.8404 197.893 28.1135C197.638 29.2242 196.472 29.8614 195.271 29.8614C195.089 29.8614 194.925 30.0071 194.925 30.1892V31.664C194.925 31.8461 195.089 32.01 195.271 32.01Z" fill="white"/>
</svg>
