<svg width="250" height="44" viewBox="0 0 250 44" fill="none" xmlns="http://www.w3.org/2000/svg">
<rect width="250" height="44" rx="5" fill="#5A78FF"/>
<path d="M32.8673 16.364H36.9373C39.4163 16.364 40.8038 17.6405 40.8038 19.62C40.8038 20.5265 40.2488 21.6365 39.1018 22.2655C40.6928 22.7835 41.3218 23.875 41.3218 24.9295C41.3218 26.9275 39.7123 28.5 37.1593 28.5H32.8673V16.364ZM34.9948 23.2645V26.5945H36.9558C38.2138 26.5945 39.1388 26.095 39.1388 24.9295C39.1388 23.986 38.2508 23.2645 36.9558 23.2645H34.9948ZM34.9948 18.2695V21.4515H36.7708C37.8808 21.4515 38.6763 20.8595 38.6763 19.8975C38.6763 18.8615 37.9918 18.2695 36.7708 18.2695H34.9948ZM47.5212 20.656C46.1892 20.656 45.2642 21.359 44.9682 22.765H50.0187C49.8337 21.2665 48.8162 20.656 47.5212 20.656ZM51.9427 24.282H44.8942C45.0422 25.9285 45.9672 27.0015 47.6507 27.0015C49.1677 27.0015 49.7782 26.354 50.0002 25.281L51.8687 25.5955C51.5172 27.76 49.4452 28.7405 47.7247 28.7405C44.9867 28.7405 42.8407 26.872 42.8407 23.801C42.8407 20.804 44.8942 18.917 47.5952 18.917C50.1297 18.917 51.9427 20.8595 51.9427 23.616V24.282ZM54.4666 16.919L56.4831 16.6045V19.176H58.8141V20.804H56.4831V25.8545C56.4831 26.576 56.7791 26.946 57.5931 26.946C57.9816 26.946 58.2036 26.909 58.5736 26.8165L58.8881 28.4445C58.4071 28.5925 57.7411 28.7405 57.1861 28.7405C55.3176 28.7405 54.4666 27.6675 54.4666 25.947V20.804H52.7276V19.176H54.4666V16.919ZM64.2007 28.7405C62.2767 28.7405 60.1122 27.1495 60.1122 23.7455C60.1122 20.4895 62.2582 18.917 64.2192 18.917C65.6807 18.917 66.6982 19.5275 67.3642 20.989V19.176H69.3807V28.5H67.3642V26.5945C66.9017 27.723 65.8657 28.7405 64.2007 28.7405ZM64.7742 20.656C63.4977 20.656 62.1472 21.655 62.1472 23.8565C62.1472 26.021 63.4792 26.983 64.7557 26.983C66.1432 26.983 67.3642 26.0765 67.3642 23.8565C67.3642 21.692 66.1432 20.656 64.7742 20.656ZM71.9776 15.957H73.9941V28.5H71.9776V15.957ZM91.6164 20.7485C90.4694 20.7485 89.6369 21.507 89.6369 23.172V28.5H87.6019V23.1165C87.6019 21.396 86.7879 20.7485 85.7149 20.7485C84.4939 20.7485 83.5874 21.507 83.5874 23.172V28.5H81.5709V19.176H83.5874V20.582C84.2349 19.361 85.5114 18.917 86.5844 18.917C87.7869 18.917 88.9154 19.398 89.3964 20.7115C90.0994 19.324 91.3944 18.917 92.4304 18.917C94.1324 18.917 95.6679 19.7495 95.6679 22.247V28.5H93.6514V23.1165C93.6514 21.396 92.7819 20.7485 91.6164 20.7485ZM102.262 20.656C100.93 20.656 100.005 21.359 99.7094 22.765H104.76C104.575 21.2665 103.557 20.656 102.262 20.656ZM106.684 24.282H99.6354C99.7834 25.9285 100.708 27.0015 102.392 27.0015C103.909 27.0015 104.519 26.354 104.741 25.281L106.61 25.5955C106.258 27.76 104.186 28.7405 102.466 28.7405C99.7279 28.7405 97.5819 26.872 97.5819 23.801C97.5819 20.804 99.6354 18.917 102.336 18.917C104.871 18.917 106.684 20.8595 106.684 23.616V24.282ZM117.311 15.957V28.5H115.294V26.724C114.832 27.8525 113.796 28.7405 112.112 28.7405C110.207 28.7405 108.042 27.1495 108.042 23.7455C108.042 20.4895 110.188 18.917 112.371 18.917C113.611 18.917 114.647 19.5275 115.294 20.989V15.957H117.311ZM112.704 20.656C111.428 20.656 110.077 21.692 110.077 23.8565C110.077 25.9655 111.409 26.983 112.686 26.983C114.073 26.983 115.294 26.021 115.294 23.8565C115.294 21.7475 114.073 20.656 112.704 20.656Z" fill="white"/>
<path fill-rule="evenodd" clip-rule="evenodd" d="M125.312 28.4594H127.388C127.552 28.4594 127.679 28.3866 127.734 28.2045L130.137 20.6118C130.174 20.4661 130.319 20.4661 130.374 20.6118L133.233 28.1499C133.306 28.3502 133.415 28.4594 133.615 28.4594H134.908C135.09 28.4594 135.236 28.3684 135.308 28.1499L138.076 20.6118C138.131 20.4661 138.295 20.4661 138.331 20.6118L140.68 28.2045C140.716 28.3502 140.825 28.4594 141.008 28.4594H143.211C143.429 28.4594 143.557 28.2956 143.484 28.0589L139.86 16.3693C139.806 16.2055 139.678 16.078 139.514 16.078H137.657C137.493 16.078 137.348 16.2237 137.293 16.3693L134.434 23.7436C134.38 23.9074 134.234 23.8892 134.18 23.7436L131.303 16.3693C131.248 16.2237 131.102 16.078 130.939 16.078H129.081C128.917 16.078 128.79 16.2055 128.735 16.3693L125.039 28.0589C124.966 28.3138 125.094 28.4594 125.312 28.4594ZM148.964 28.6961C146.16 28.6961 144.085 26.584 144.085 23.8892C144.085 21.1762 146.16 19.0823 148.964 19.0823C151.787 19.0823 153.844 21.1762 153.844 23.8892C153.844 26.584 151.787 28.6961 148.964 28.6961ZM148.964 26.4384C150.294 26.4384 151.368 25.2912 151.368 23.8892C151.368 22.469 150.294 21.3401 148.964 21.3401C147.653 21.3401 146.561 22.469 146.561 23.8892C146.561 25.2912 147.653 26.4384 148.964 26.4384ZM160.69 28.6961C159.616 28.6961 158.888 28.2591 158.214 27.7129C158.032 27.5672 157.868 27.6219 157.868 27.8768V28.1135C157.868 28.2956 157.722 28.4594 157.54 28.4594H155.829C155.647 28.4594 155.483 28.2956 155.483 28.1135V16.424C155.483 16.2419 155.647 16.078 155.829 16.078H157.631C157.813 16.078 157.959 16.2419 157.959 16.424V19.756C157.959 19.9927 158.123 20.0656 158.378 19.8835C158.924 19.4829 159.725 19.0823 160.763 19.0823C163.258 19.0823 165.169 21.1945 165.169 23.8892C165.169 26.584 163.221 28.6961 160.69 28.6961ZM160.272 26.4201C161.619 26.4201 162.693 25.2912 162.693 23.8892C162.693 22.469 161.619 21.3401 160.272 21.3401C158.961 21.3401 157.886 22.4508 157.886 23.8892C157.886 25.3095 158.942 26.4201 160.272 26.4201ZM168.065 18.3176C168.811 18.3176 169.448 17.6803 169.448 16.9338C169.448 16.1873 168.811 15.55 168.065 15.55C167.318 15.55 166.681 16.1873 166.681 16.9338C166.681 17.6803 167.318 18.3176 168.065 18.3176ZM167.136 28.4594H168.939C169.121 28.4594 169.284 28.2956 169.284 28.1135V19.665C169.284 19.4829 169.121 19.319 168.939 19.319H167.136C166.954 19.319 166.808 19.4829 166.808 19.665V28.1135C166.808 28.2956 166.954 28.4594 167.136 28.4594ZM174.656 28.5505C174.838 28.5505 175.002 28.4048 175.002 28.2227V26.7297C175.002 26.5294 174.838 26.3837 174.656 26.3837C174.019 26.3837 173.764 26.0014 173.764 25.4187V16.424C173.764 16.2419 173.6 16.078 173.418 16.078H171.615C171.433 16.078 171.287 16.2419 171.287 16.424V25.3641C171.287 27.7675 172.252 28.5505 174.656 28.5505ZM180.482 28.6961C177.715 28.6961 175.748 26.6751 175.748 23.9257C175.748 21.158 177.788 19.0823 180.519 19.0823C183.232 19.0823 185.216 21.1945 185.216 23.9621C185.216 24.2898 185.125 24.5629 184.798 24.5629H178.534C178.37 24.5629 178.316 24.654 178.334 24.7996C178.461 25.8375 179.372 26.6022 180.555 26.6022C181.338 26.6022 181.903 26.2563 182.285 25.8193C182.485 25.6008 182.649 25.528 182.868 25.528H184.543C184.834 25.528 184.962 25.7282 184.852 26.0196C184.251 27.5672 182.54 28.6961 180.482 28.6961ZM178.552 23.0881H182.394C182.522 23.0881 182.576 23.0335 182.558 22.8878C182.376 21.9228 181.52 21.1762 180.482 21.1762C179.481 21.1762 178.643 21.8864 178.407 22.8332C178.37 22.9606 178.388 23.0881 178.552 23.0881ZM187.347 28.4594C187.165 28.4594 187.019 28.2956 187.019 28.1135V16.424C187.019 16.2419 187.165 16.078 187.347 16.078H193.082C195.704 16.078 197.489 17.6075 197.489 20.1748C197.489 22.6875 195.468 24.3262 192.955 24.3262H189.914C189.696 24.3262 189.586 24.4537 189.586 24.6722V28.1135C189.586 28.2956 189.423 28.4594 189.24 28.4594H187.347ZM189.896 22.2141H192.955C194.211 22.2141 194.903 21.1398 194.903 20.193C194.903 19.1916 194.229 18.2448 192.955 18.2448H189.896C189.677 18.2448 189.586 18.354 189.586 18.5725V21.8864C189.586 22.1049 189.677 22.2141 189.896 22.2141ZM203.024 28.6961C200.584 28.6961 198.545 26.6386 198.545 23.8892C198.545 21.1216 200.62 19.0823 203.06 19.0823C204.098 19.0823 204.826 19.4829 205.482 20.0109C205.646 20.1566 205.828 20.1384 205.828 19.9199V19.6468C205.828 19.4647 205.974 19.319 206.156 19.319H207.867C208.049 19.319 208.213 19.4829 208.213 19.665V25.6918C208.213 26.147 208.377 26.3473 208.687 26.3655C208.85 26.3837 208.996 26.493 208.996 26.6568V28.2409C208.996 28.4048 208.869 28.5505 208.687 28.5505C207.485 28.5505 206.775 28.2045 206.374 27.5126C206.265 27.3305 206.137 27.2941 205.955 27.4762C205.227 28.1499 204.389 28.6961 203.024 28.6961ZM203.443 26.4384C204.772 26.4384 205.828 25.3095 205.828 23.8892C205.828 22.4508 204.772 21.3401 203.443 21.3401C202.095 21.3401 201.039 22.469 201.039 23.8892C201.039 25.2912 202.095 26.4384 203.443 26.4384ZM210.271 32.01C212.929 32.01 214.258 30.8993 215.515 27.9314L218.956 19.756C219.047 19.5375 218.883 19.319 218.646 19.319H216.917C216.734 19.319 216.643 19.4283 216.571 19.6104L214.568 24.4719C214.404 24.8543 214.185 24.8725 214.021 24.4901L211.928 19.6468C211.855 19.4647 211.745 19.319 211.563 19.319H209.761C209.542 19.319 209.36 19.5193 209.469 19.8107L212.82 27.3852C212.929 27.6401 212.965 27.8404 212.893 28.1135C212.638 29.2242 211.472 29.8614 210.271 29.8614C210.089 29.8614 209.925 30.0071 209.925 30.1892V31.664C209.925 31.8461 210.089 32.01 210.271 32.01Z" fill="white"/>
</svg>
