<svg width="250" height="44" viewBox="0 0 250 44" fill="none" xmlns="http://www.w3.org/2000/svg">
<rect width="250" height="44" rx="5" fill="#FF5B24"/>
<path d="M53.9258 28.5V15.4651H59.129C61.7757 15.4651 63.5643 17.2085 63.5643 19.8191V19.8372C63.5643 22.4387 61.7757 24.1912 59.129 24.1912H56.2564V28.5H53.9258ZM58.5599 17.3711H56.2564V22.3123H58.5599C60.231 22.3123 61.2066 21.4089 61.2066 19.8462V19.8281C61.2066 18.2654 60.231 17.3711 58.5599 17.3711ZM68.0344 28.6626C66.1555 28.6626 64.7915 27.5063 64.7915 25.7087V25.6907C64.7915 23.9292 66.1375 22.8994 68.5403 22.7549L71.0786 22.6013V21.7522C71.0786 20.7676 70.4373 20.2256 69.2268 20.2256C68.197 20.2256 67.5286 20.5959 67.3027 21.2463L67.2937 21.2825H65.1709L65.1799 21.2012C65.3967 19.5391 66.9866 18.437 69.3352 18.437C71.8735 18.437 73.3008 19.6655 73.3008 21.7522V28.5H71.0786V27.145H70.925C70.3831 28.1025 69.3352 28.6626 68.0344 28.6626ZM67.0137 25.6003C67.0137 26.4404 67.7273 26.9373 68.7209 26.9373C70.0759 26.9373 71.0786 26.052 71.0786 24.8777V24.0828L68.8564 24.2273C67.6008 24.3086 67.0137 24.7693 67.0137 25.5823V25.6003ZM76.5515 31.9688C76.2805 31.9688 75.9643 31.9597 75.6933 31.9326V30.2073C75.874 30.2253 76.1269 30.2344 76.3618 30.2344C77.2832 30.2344 77.8342 29.855 78.0781 28.9607L78.1955 28.509L74.6635 18.6267H77.1206L79.424 26.3411H79.5957L81.8901 18.6267H84.2568L80.7158 28.7078C79.8667 31.1829 78.7375 31.9688 76.5515 31.9688ZM92.6009 28.5L89.9271 18.6267H92.1854L93.8294 26.043H93.983L95.88 18.6267H98.0209L99.9359 26.043H100.089L101.724 18.6267H103.956L101.282 28.5H98.9242L97.0001 21.3457H96.8465L94.9315 28.5H92.6009ZM106.872 16.9736C106.131 16.9736 105.526 16.3865 105.526 15.6458C105.526 14.9141 106.131 14.3179 106.872 14.3179C107.604 14.3179 108.209 14.9141 108.209 15.6458C108.209 16.3865 107.604 16.9736 106.872 16.9736ZM105.743 28.5V18.6267H107.992V28.5H105.743ZM114.441 28.5452C112.173 28.5452 111.243 27.7864 111.243 25.8804V20.3701H109.707V18.6267H111.243V16.2058H113.528V18.6267H115.615V20.3701H113.528V25.3474C113.528 26.332 113.917 26.7476 114.856 26.7476C115.172 26.7476 115.344 26.7385 115.615 26.7114V28.4458C115.29 28.509 114.874 28.5452 114.441 28.5452ZM117.746 28.5V14.8057H119.995V20.1353H120.148C120.618 19.0784 121.567 18.437 122.994 18.437C125.198 18.437 126.399 19.7649 126.399 22.1135V28.5H124.15V22.6375C124.15 21.1018 123.527 20.325 122.163 20.325C120.826 20.325 119.995 21.2644 119.995 22.7458V28.5H117.746Z" fill="white"/>
<path fill-rule="evenodd" clip-rule="evenodd" d="M198 20.3784C197.28 17.6307 195.531 16.54 193.145 16.54C191.211 16.54 188.784 17.6307 188.784 20.2571C188.784 21.954 189.957 23.2876 191.869 23.6312L193.68 23.9542C194.914 24.1763 195.264 24.6411 195.264 25.2674C195.264 25.9745 194.503 26.3784 193.371 26.3784C191.89 26.3784 190.965 25.8532 190.82 24.3783L188.208 24.7824C188.619 27.6308 191.17 28.8029 193.474 28.8029C195.655 28.8029 197.979 27.5501 197.979 25.0249C197.979 23.3075 196.93 22.0553 194.976 21.6912L192.981 21.3279C191.869 21.1259 191.499 20.5804 191.499 20.0551C191.499 19.3884 192.219 18.9645 193.207 18.9645C194.462 18.9645 195.346 19.3884 195.387 20.7823L198 20.3784ZM139.925 24.7013L142.64 16.8428H145.828L141.097 28.4994H138.731L134 16.8431H137.188L139.925 24.7013ZM156.608 20.1764C156.608 21.1055 155.868 21.752 155.004 21.752C154.14 21.752 153.399 21.1055 153.399 20.1764C153.399 19.247 154.14 18.6007 155.004 18.6007C155.868 18.6007 156.609 19.247 156.609 20.1764H156.608ZM157.102 24.2977C156.032 25.6711 154.901 26.6206 152.905 26.6207C150.869 26.6207 149.285 25.4086 148.051 23.6309C147.557 22.9035 146.796 22.742 146.24 23.1259C145.726 23.4896 145.603 24.2573 146.076 24.924C147.783 27.4897 150.149 28.9843 152.905 28.9843C155.436 28.9843 157.411 27.7724 158.953 25.7521C159.529 25.0048 159.509 24.2371 158.953 23.8128C158.439 23.4084 157.678 23.5504 157.102 24.2977ZM164.2 22.6409C164.2 25.0249 165.599 26.2776 167.163 26.2776C168.643 26.2776 170.166 25.1057 170.166 22.6409C170.166 20.2164 168.643 19.045 167.183 19.045C165.599 19.045 164.2 20.156 164.2 22.6409ZM164.2 18.4594V16.863H161.3V32.54H164.2V26.964C165.167 28.2571 166.422 28.8029 167.841 28.8029C170.495 28.8029 173.087 26.7421 173.087 22.4998C173.087 18.4388 170.392 16.5402 168.088 16.5402C166.257 16.5402 165.002 17.3683 164.2 18.4594ZM178.128 22.6409C178.128 25.0249 179.526 26.2776 181.09 26.2776C182.571 26.2776 184.093 25.1057 184.093 22.6409C184.093 20.2164 182.571 19.045 181.11 19.045C179.526 19.045 178.127 20.156 178.127 22.6409H178.128ZM178.128 18.4594V16.863H178.127H175.227V32.54H178.127V26.964C179.094 28.2571 180.349 28.8029 181.768 28.8029C184.422 28.8029 187.014 26.7421 187.014 22.4998C187.014 18.4388 184.319 16.5402 182.015 16.5402C180.184 16.5402 178.93 17.3683 178.128 18.4594Z" fill="white"/>
</svg>
